<?xml version="1.0" encoding="utf-8"?>
<!DOCTYPE svg PUBLIC "-//W3C//DTD SVG 1.0//EN" "http://www.w3.org/TR/2001/REC-SVG-20010904/DTD/svg10.dtd">
<svg version="1.0" xmlns="http://www.w3.org/2000/svg" width="1024px" height="1024px" viewBox="0 0 1024 1024" preserveAspectRatio="xMidYMid meet">
 <g fill="#ffffff">
  <path d="M0 512 l0 -512 512 0 512 0 0 512 0 512 -512 0 -512 0 0 -512z m543.75 391 c18.60 -1.15 31.65 -2.65 44.75 -5.05 1.50 -0.30 4 -0.75 5.50 -1 1.50 -0.30 3.55 -0.70 4.50 -0.95 0.95 -0.25 3.35 -0.80 5.25 -1.25 7.95 -1.80 19.35 -5.60 25.20 -8.40 2.40 -1.10 4.40 -2.15 4.55 -2.30 0.15 -0.20 0.90 -0.65 1.75 -1.05 2.30 -1.15 7.55 -6.55 8.45 -8.70 0.65 -1.60 0.80 -4.10 0.80 -14.95 0 -12.15 -0.05 -13.20 -1.05 -15.15 -2.10 -4.40 -8.10 -9.15 -16.60 -13.20 -2.90 -1.35 -5.50 -2.50 -5.80 -2.50 -0.30 0 -0.95 -0.20 -1.45 -0.50 -1.95 -1.10 -15.65 -5.20 -21.60 -6.50 -0.95 -0.25 -3 -0.65 -4.50 -1 -15.40 -3.40 -35.70 -6.15 -49.75 -6.80 -3.30 -0.15 -6.75 -0.35 -7.60 -0.50 l-1.65 -0.25 0 -49.70 0 -49.75 1.75 0 c0.95 0 2.70 -0.20 3.85 -0.50 1.20 -0.25 4.30 -0.95 6.90 -1.55 15.55 -3.45 32.10 -11.45 45.20 -21.85 4.05 -3.25 12.60 -11.65 15.55 -15.35 1.10 -1.35 2.40 -2.95 2.90 -3.50 1.55 -1.70 7.75 -11 10.25 -15.35 2.65 -4.60 5.30 -10 7.35 -14.90 0.75 -1.80 1.55 -3.70 1.80 -4.25 1.50 -3.55 4.60 -14.20 5.50 -18.75 0.30 -1.50 0.75 -3.75 1 -5 1.75 -9.05 1.95 -15.25 1.95 -64.75 0 -32.85 -0.20 -49.65 -0.55 -51 -1.55 -5.85 -4.40 -8.75 -10.45 -10.55 -2.05 -0.60 -2.80 -0.60 -5.35 0 -4.30 1.05 -5.40 1.55 -7.90 3.85 -4.35 4 -3.95 -1.20 -4.30 56.20 -0.20 35.95 -0.45 52.10 -0.90 54.75 -1.30 8.40 -1.65 10.30 -2.05 11.75 -0.25 0.85 -0.70 2.50 -1.05 3.75 -1.20 4.55 -3.05 9.85 -4.85 14 -1.85 4.35 -6.50 13.55 -7.10 14 -0.15 0.15 -0.90 1.30 -1.65 2.60 -4.30 7.40 -14.20 18.05 -22.75 24.45 -4.70 3.45 -14.40 8.80 -19.10 10.45 -0.95 0.30 -2.20 0.80 -2.75 1 -0.55 0.20 -2 0.65 -3.25 1 -1.25 0.35 -2.80 0.80 -3.50 1 -1.30 0.40 -4.50 1.05 -9.70 2 -1.80 0.30 -12.30 0.50 -26.30 0.50 -23.35 0 -26.15 -0.15 -35 -2 -8.50 -1.75 -16.25 -4.55 -25.05 -9.10 -4.90 -2.50 -4.95 -2.55 -4.95 -4.35 l0 -1.80 37.60 0.15 c42.10 0.20 45.70 0 56.40 -2.80 11.15 -2.95 23.35 -10.45 31.80 -19.60 5 -5.40 5.90 -6.45 8.65 -10.50 5.65 -8.25 10.05 -18.60 12.10 -28.50 2.20 -10.30 2.10 -7.70 2.40 -65.50 l0.35 -55.25 1.15 -3.25 c2.10 -5.95 4.30 -9.40 8.25 -13.20 3.20 -3 9.05 -6.50 12.60 -7.55 1.20 -0.30 1.55 -2.60 2.70 -16.25 0.25 -3.45 0.70 -8.70 1 -11.75 0.25 -3 0.70 -8.40 1 -12 0.65 -8.35 1.35 -15.95 2.10 -23.75 0.80 -8.35 0.80 -26.45 0 -30 -0.35 -1.50 -0.90 -4 -1.20 -5.50 -0.60 -3.05 -3 -10.75 -4.20 -13.50 -1.90 -4.30 -5.90 -12.05 -6.85 -13.25 -0.20 -0.25 -1.10 -1.60 -1.95 -3 -0.90 -1.35 -1.75 -2.60 -1.90 -2.75 -0.15 -0.15 -1.05 -1.25 -1.95 -2.50 -2.95 -3.90 -14.65 -15.15 -18.65 -17.85 -3.45 -2.40 -12.20 -7.65 -12.70 -7.65 -0.10 0 -1.15 -0.45 -2.35 -0.95 -4.80 -2.15 -11.05 -4.25 -16.35 -5.45 -7.65 -1.75 -9.55 -1.85 -43 -1.85 -26.10 0 -33.90 0.15 -36.25 0.65 -7.25 1.65 -9.50 2.20 -12.40 3.15 -3.45 1.10 -10.80 4.20 -13.20 5.55 -0.90 0.50 -2.50 1.40 -3.50 1.95 -9.75 5.50 -22.15 17.15 -28.50 26.75 -0.35 0.55 -1.20 1.80 -1.90 2.85 -3.40 5.15 -8.25 15.60 -9.75 21.10 -2.60 9.45 -2.85 11.30 -4.50 30 -0.30 3.30 -0.75 8.35 -1 11.25 -0.25 2.90 -0.70 7.75 -0.95 10.75 -0.30 3.05 -0.75 8.30 -1.05 11.75 -0.30 3.45 -0.75 8.60 -1 11.50 -0.25 2.90 -0.70 8.05 -1 11.50 -0.30 3.45 -0.75 8.40 -1 11 -0.25 2.60 -0.70 7.70 -1 11.25 -0.30 3.60 -0.80 9.25 -1.10 12.60 l-0.60 6.05 -4.50 -0.05 c-6.90 -0.05 -10.80 1.70 -13.85 6.35 l-1.70 2.55 0 55.75 c0 43.90 0.15 56.50 0.65 59.25 1.60 8.65 1.85 9.60 3.60 15.75 1.45 5.15 2.65 8.30 5.80 15.50 2.20 5.05 7.90 15.35 9.80 17.75 0.25 0.30 1.60 2.10 3 4 6.30 8.55 14.65 17 21.40 21.75 0.95 0.65 1.85 1.35 2 1.50 0.30 0.30 6.25 4.25 9.75 6.40 7.55 4.60 24.45 11.75 34.15 14.40 8.45 2.30 11.90 3.05 18.60 4.15 1.80 0.25 4.35 0.70 5.65 0.90 l2.40 0.40 0 50 c0 27.50 -0.05 50.30 -0.05 50.65 0 0.45 -1.40 0.60 -5.30 0.60 -2.90 0 -6.75 0.20 -8.60 0.45 -1.85 0.30 -5.95 0.75 -9.10 1.05 -10.35 1 -23.15 3.05 -32.85 5.30 -7.65 1.75 -10.10 2.35 -13.40 3.30 -4.45 1.30 -12.15 3.80 -13.60 4.45 -0.65 0.25 -1.65 0.65 -2.25 0.90 -10.65 4.15 -18.60 9.85 -21.40 15.30 -1.25 2.40 -1.25 2.55 -1.25 15.70 l0 13.30 1.40 2.15 c2.90 4.50 8.90 8.85 15.90 11.65 1.50 0.55 3.40 1.35 4.20 1.70 5.15 2.30 19 6.15 29.50 8.20 11 2.15 19.45 3.30 34.50 4.80 19.20 1.90 59.85 2.55 81 1.25z m-239.75 -162 c2.10 -0.40 4.40 -0.80 12.15 -2 1.70 -0.25 6.05 -0.95 9.60 -1.50 6.50 -1.05 9.95 -1.55 16 -2.50 9.40 -1.45 21.25 -3.30 25.25 -4 1.50 -0.25 4.45 -0.70 6.50 -1 2.05 -0.35 4.90 -0.80 6.25 -1 1.40 -0.25 4.20 -0.65 6.25 -0.95 9.15 -1.35 21.85 -3.30 26.75 -4.10 1.65 -0.30 5 -0.80 7.50 -1.15 l4.45 -0.60 -3.45 -1.75 c-6.80 -3.40 -11.55 -6.15 -17.50 -10.10 -3.30 -2.20 -6.10 -4.15 -6.25 -4.35 -0.15 -0.15 -1.05 -0.85 -2 -1.50 -5.75 -4 -15.65 -13.65 -21.50 -20.95 -7.95 -9.95 -15.60 -22.45 -19 -31.05 -0.60 -1.50 -1.35 -3.40 -1.75 -4.25 -0.90 -2.10 -2.60 -6.65 -3.20 -8.75 -0.30 -0.95 -0.95 -3.10 -1.50 -4.75 -0.55 -1.65 -1.30 -4.45 -1.75 -6.25 -2.05 -8.65 -2.35 -10.35 -3.80 -21.65 -0.65 -4.90 -0.70 -115.60 -0.05 -117.65 0.25 -0.80 0.70 -2.45 1.05 -3.70 1.30 -4.65 4.70 -10.60 8.05 -14.15 2.20 -2.25 6.15 -5.10 9.40 -6.60 l2.90 -1.40 0.55 -5.05 c0.30 -2.80 0.80 -7.85 1.10 -11.30 0.30 -3.45 0.75 -8.40 1 -11 0.25 -2.60 0.70 -7.80 1 -11.50 0.30 -3.70 0.80 -8.65 1.05 -11 0.75 -6.90 0.65 -7.65 -0.90 -8.60 -1.55 -0.90 -7.20 -6.35 -10.60 -10.15 -1.25 -1.40 -5.40 -5.85 -9.25 -10 -3.90 -4.10 -8.60 -9.15 -10.55 -11.20 -1.90 -2.05 -4.60 -4.90 -6 -6.30 -1.35 -1.40 -3.80 -4 -5.45 -5.80 -1.60 -1.75 -6.25 -6.70 -10.25 -10.95 -4 -4.25 -8.55 -9.10 -10.05 -10.70 -1.50 -1.65 -3.85 -4.15 -5.25 -5.55 -1.35 -1.45 -3.60 -3.80 -4.95 -5.30 -1.35 -1.50 -5.75 -6.20 -9.75 -10.45 -15.70 -16.70 -15.45 -16.50 -17.95 -14.15 -1.20 1.10 -1.75 2.35 -2.55 5.65 -1.25 5.25 -2.80 12.10 -4.55 19.75 -0.25 1.10 -0.90 4.05 -1.50 6.50 -1.25 5.25 -1.75 7.45 -2.55 11.25 -2.20 10.40 -5.05 14.65 -11.15 16.70 -5.55 1.90 -8.30 1.55 -25.55 -2.90 -1.65 -0.40 -5.80 -1.45 -9.25 -2.30 -3.45 -0.80 -7.05 -1.70 -8 -2 -0.95 -0.25 -4.10 -1.05 -7 -1.80 -2.90 -0.70 -9.65 -2.40 -15 -3.75 -5.35 -1.35 -10.65 -2.70 -11.75 -2.90 -1.10 -0.25 -6.50 -1.65 -12 -3.05 -9.60 -2.50 -11.10 -2.90 -15.50 -3.95 -1.10 -0.25 -3.35 -0.80 -4.95 -1.25 -4.65 -1.30 -6.25 -1.20 -7.65 0.45 -1.25 1.40 -1.25 2.50 -0.15 5.75 0.20 0.70 0.90 3.15 1.50 5.50 0.60 2.35 1.30 4.80 1.50 5.50 0.20 0.70 0.65 2.25 1 3.50 0.35 1.25 0.80 2.80 1 3.50 0.20 0.70 0.65 2.15 0.95 3.25 0.30 1.10 1.65 6.05 3.05 11 1.40 4.95 2.75 9.90 3.05 11 0.30 1.10 0.75 2.55 0.95 3.25 0.25 0.70 0.65 2.40 1 3.75 0.35 1.40 0.75 3.05 1 3.75 0.20 0.70 0.65 2.15 0.95 3.25 0.30 1.10 1.20 4.35 2 7.25 0.85 2.90 1.85 6.60 2.30 8.25 0.45 1.65 1.05 3.70 1.25 4.50 0.25 0.85 0.90 3.30 1.50 5.50 0.60 2.20 1.25 4.70 1.50 5.50 0.50 1.75 1.10 3.80 2.25 8 1.30 4.80 3.70 13.30 4.40 15.50 0.30 1.10 0.60 4.50 0.60 7.50 0 9.05 -1.45 10.90 -12.90 16.45 -6.50 3.15 -20.15 9.75 -29.20 14.15 -3 1.45 -5.15 3.40 -5.15 4.65 0 1.05 0.75 1.80 6.50 6.35 2.35 1.85 4.35 3.45 4.50 3.65 0.15 0.15 1.50 1.25 3 2.50 1.50 1.25 3 2.45 3.30 2.75 0.30 0.25 2.65 2.20 5.20 4.25 4.90 3.95 19.40 15.85 21.50 17.70 0.70 0.55 2.25 1.85 3.50 2.80 1.25 0.95 2.35 1.85 2.50 2 0.15 0.15 2.60 2.20 5.50 4.50 2.90 2.35 5.55 4.50 5.90 4.85 0.35 0.35 1.70 1.45 3 2.50 1.30 1.05 2.45 2 2.60 2.15 0.15 0.15 1.50 1.25 3 2.50 1.50 1.25 3.20 2.60 3.75 3.10 0.55 0.45 2.70 2.20 4.75 3.90 2.05 1.70 4.20 3.45 4.75 3.90 0.55 0.50 2.25 1.85 3.75 3.10 1.50 1.25 2.85 2.35 3 2.50 0.15 0.15 2.60 2.15 5.50 4.50 2.90 2.35 5.70 4.60 6.25 5.10 0.85 0.70 12.15 10.05 15.50 12.80 0.55 0.50 2.25 1.85 3.75 3.10 1.50 1.25 2.85 2.35 3 2.50 0.15 0.15 2.60 2.20 5.50 4.50 2.90 2.35 5.55 4.50 5.90 4.85 0.35 0.35 1.70 1.45 3 2.50 1.30 1.05 2.45 2 2.60 2.15 0.15 0.15 1.50 1.25 3 2.50 1.50 1.25 2.85 2.35 3 2.50 0.15 0.15 3.95 3.30 8.50 7 4.55 3.70 8.55 7 8.90 7.35 0.35 0.35 2.85 2.40 5.50 4.50 2.65 2.15 4.95 4 5.10 4.15 0.20 0.25 3.40 2.85 6.75 5.55 1.80 1.50 9.45 8 11.30 9.60 2.20 2 4.60 5.50 5.50 8.10 0.40 1.20 0.70 4.10 0.70 7.25 -0.05 5.90 0.35 4.45 -8.25 30.50 -7.80 23.50 -10 30.45 -10 31.40 0 0.95 1.70 2.75 3 3.25 0.80 0.30 2.70 0.10 6.50 -0.65z m424.25 -0.80 c1.55 -1.70 1.55 -1.90 -0.20 -7.15 -0.80 -2.35 -4.40 -13.40 -8.05 -24.55 -3.60 -11.15 -6.80 -20.70 -7 -21.25 -1.15 -2.55 -1.70 -5.90 -1.70 -10.25 -0.05 -8.40 1.90 -12 10.35 -19.05 3.10 -2.60 6.05 -5.05 6.60 -5.50 1.10 -0.95 10.40 -8.70 12 -10 4.85 -4.05 17 -14.10 18.90 -15.60 1.25 -1.05 2.60 -2.15 2.95 -2.50 0.40 -0.35 1.90 -1.60 3.40 -2.85 1.50 -1.25 3.20 -2.65 3.75 -3.10 0.55 -0.45 2.70 -2.20 4.75 -3.95 2.05 -1.70 4.45 -3.65 5.25 -4.40 0.85 -0.70 2.75 -2.30 4.25 -3.55 1.50 -1.25 3.20 -2.60 3.75 -3.10 2.85 -2.35 8.35 -6.85 10.25 -8.40 1.20 -0.95 6.90 -5.70 12.75 -10.50 5.80 -4.80 11.60 -9.60 12.90 -10.65 1.25 -1.05 2.60 -2.15 2.95 -2.50 0.40 -0.35 1.90 -1.60 3.40 -2.85 1.50 -1.25 3.20 -2.60 3.75 -3.10 3.15 -2.60 8.35 -6.90 10.25 -8.40 1.20 -0.95 2.90 -2.35 3.75 -3.05 2.85 -2.40 13.75 -11.40 19.20 -15.90 1.25 -1 2.90 -2.40 3.75 -3.10 3.60 -3 10.55 -8.75 13.30 -10.95 2.25 -1.80 5.55 -4.55 6 -5 0.15 -0.15 2.60 -2.15 5.50 -4.50 2.90 -2.30 5.35 -4.35 5.50 -4.50 0.15 -0.15 2.15 -1.80 4.50 -3.70 2.35 -1.85 4.50 -3.90 4.80 -4.45 1.15 -2.05 -0.70 -3.80 -7.05 -6.80 -22.05 -10.45 -33.20 -16.05 -35 -17.60 -2.95 -2.60 -4.30 -5.40 -4.60 -9.55 -0.25 -3.65 0.05 -5.45 2.55 -14.50 0.45 -1.60 1.10 -4.10 1.50 -5.50 0.40 -1.45 1.20 -4.35 1.75 -6.40 2.50 -8.90 3.05 -10.95 4 -14.50 0.60 -2.05 1.50 -5.45 2.10 -7.50 0.55 -2.05 1.20 -4.40 1.45 -5.25 0.25 -0.80 0.85 -3.05 1.40 -5 0.50 -1.90 1.70 -6.20 2.60 -9.50 0.90 -3.30 2.05 -7.55 2.60 -9.50 0.55 -1.90 1.30 -4.70 1.70 -6.10 0.40 -1.45 1.05 -3.90 1.45 -5.40 0.40 -1.50 1.10 -4 1.50 -5.50 0.80 -2.95 1.60 -5.75 3.25 -11.75 0.60 -2.05 1.40 -4.95 1.80 -6.35 0.40 -1.45 1.05 -3.95 1.50 -5.50 1.80 -6.55 1.80 -6.75 0.80 -8.10 -1.75 -2.35 -1.95 -2.35 -11.15 -0.10 -12.25 2.95 -20.55 4.95 -25.20 6.05 -5.25 1.25 -14.30 3.40 -26 6.25 -9.35 2.25 -17.85 4.35 -30.25 7.30 -3.45 0.85 -8 1.95 -10.15 2.50 -5.60 1.40 -11.55 1.30 -15 -0.25 -5.60 -2.45 -8.85 -7.30 -10.60 -15.80 -0.45 -2.35 -1.05 -5.05 -1.25 -6 -0.80 -3.60 -1.50 -6.90 -2.45 -11.25 -1.95 -9.40 -4.60 -21.10 -5.25 -23.25 -0.40 -1.25 -1.20 -2.65 -1.95 -3.20 -1.80 -1.35 -3.15 -0.65 -7.05 3.55 -1.65 1.85 -5.85 6.30 -9.30 9.85 -3.45 3.60 -8.05 8.45 -10.25 10.75 -2.20 2.35 -5 5.30 -6.25 6.55 -7.05 7.20 -31.20 32.55 -31.50 33 -0.15 0.20 -5.55 5.90 -12 12.60 -6.50 6.65 -13.45 13.95 -15.50 16.10 -9.05 9.60 -11.60 11.70 -17.30 14.50 l-4.05 2 -0.35 4.75 c-0.15 2.65 -0.55 6.95 -0.80 9.55 -1.40 13 -3.45 33.80 -3.50 35.55 0 0.55 1 1.20 2.90 1.95 10.85 4.30 17.05 10.80 20.55 21.45 1.05 3.20 1.05 3.70 1.05 60.75 0 48.30 -0.15 58.55 -0.80 63.80 -1.30 10.70 -2.50 16.80 -5.25 26.40 -0.25 0.85 -0.65 2.35 -0.90 3.25 -0.55 2 -3.20 9.10 -4.30 11.70 -1.40 3.20 -6.90 14.40 -7.20 14.65 -0.15 0.15 -0.85 1.25 -1.50 2.50 -1.85 3.40 -7.75 12.05 -11.40 16.65 -6.70 8.40 -12.05 14.10 -18.65 19.85 -2.05 1.80 -3.85 3.35 -4 3.50 -1.40 1.40 -13.40 9.65 -17.20 11.80 l-1.95 1.10 2.45 0.35 c2.30 0.30 5.25 0.70 12.70 1.75 5.05 0.75 16.90 2.50 20.25 3 1.65 0.25 4.90 0.70 7.25 1 2.35 0.30 5.50 0.75 7 1 3.10 0.50 7.90 1.20 13.75 2 2.20 0.35 5.15 0.75 6.50 1 1.40 0.25 4.20 0.65 6.25 0.95 10.15 1.40 11.90 1.65 14 2.05 1.25 0.25 4.30 0.70 6.75 1 4.30 0.55 6.95 0.90 13.90 2 1.70 0.25 5 0.70 7.35 1.05 2.35 0.30 6.50 1 9.25 1.45 2.75 0.50 6.20 0.90 7.65 0.95 2.25 0.05 2.85 -0.15 3.85 -1.25z m-85.25 -391.70 c0.60 -3.40 2.35 -12.45 2.95 -15.50 0.25 -1.25 0.70 -3.60 1 -5.25 0.30 -1.65 1 -5.35 1.55 -8.25 0.55 -2.90 1.25 -6.60 1.55 -8.25 0.30 -1.65 0.70 -3.90 0.95 -5 0.75 -3.55 3.20 -16.15 4 -20.75 0.75 -4.30 2.70 -14.30 4.05 -21 0.70 -3.50 2.40 -12.40 3 -15.75 0.30 -1.65 0.70 -3.90 0.95 -5 0.25 -1.10 0.95 -4.60 1.55 -7.75 0.55 -3.15 1.45 -7.90 1.95 -10.50 0.50 -2.60 1.40 -7.35 2 -10.50 0.60 -3.15 1.25 -6.65 1.50 -7.75 0.25 -1.10 0.65 -3.35 0.95 -5 1.25 -7.15 3.15 -17 3.40 -17.60 0.15 -0.35 -0.55 -1.45 -1.55 -2.45 l-1.80 -1.80 -1.85 1.10 c-2.35 1.40 -4.70 2.75 -7.65 4.40 -1.25 0.70 -4.50 2.55 -7.25 4.10 -2.75 1.55 -6 3.40 -7.25 4.10 -1.25 0.70 -6.75 3.85 -12.25 7 -5.50 3.15 -11.55 6.60 -13.50 7.65 -1.90 1.05 -4.10 2.30 -4.85 2.85 -0.70 0.50 -1.45 0.90 -1.60 0.90 -0.15 0 -1.75 0.90 -3.50 2 -4.85 2.95 -8.60 4 -14.10 4 -4.90 0 -8.80 -1 -11.95 -3.15 -4.40 -3 -4.85 -3.75 -28.10 -50.15 -12.40 -24.75 -26.70 -53.15 -31.70 -63.20 -8.95 -17.75 -11.20 -21.50 -13.20 -21.50 -2.35 0 -3.70 2.05 -10.50 15.65 -3.75 7.45 -7.10 14.15 -7.50 14.85 -0.40 0.70 -1.90 3.75 -3.35 6.75 -1.45 3.05 -2.80 5.60 -3 5.65 -0.25 0.10 -0.40 0.40 -0.40 0.65 0 0.55 -9.05 19.05 -9.50 19.45 -0.45 0.40 -4.50 8.85 -4.50 9.40 0 0.30 -0.15 0.60 -0.35 0.70 -0.25 0.10 -6.80 12.85 -14.60 28.40 -8.50 16.95 -14.80 28.90 -15.75 29.90 -2.30 2.50 -5.15 4.30 -8.60 5.60 -2.65 0.95 -3.85 1.05 -9 0.90 -7 -0.20 -6.70 -0.05 -21.45 -8.55 -5.20 -3 -10.50 -6.05 -11.75 -6.75 -1.25 -0.70 -4.40 -2.50 -7 -4 -2.60 -1.50 -6 -3.40 -7.50 -4.25 -1.50 -0.80 -3.35 -1.90 -4.10 -2.45 -0.70 -0.50 -1.45 -0.90 -1.60 -0.90 -0.15 0 -1.45 -0.70 -2.90 -1.55 -2.95 -1.75 -5.20 -3.05 -8.15 -4.60 -1.10 -0.60 -2.10 -1.20 -2.25 -1.35 -0.15 -0.15 -1.50 -0.95 -3.05 -1.75 -2.75 -1.40 -2.85 -1.40 -4.15 -0.60 -2.30 1.50 -2.25 2 1.75 22.10 1.20 6.20 3.35 17.50 4 21 0.30 1.65 0.75 4 1 5.25 0.25 1.25 0.90 4.60 1.45 7.50 0.55 2.90 1.25 6.40 1.50 7.75 0.95 4.80 2.50 13.05 3.05 16 0.30 1.65 0.70 3.90 0.95 5 0.80 3.80 3.25 16.40 4.05 21 0.30 1.65 0.70 3.90 0.95 5 0.25 1.10 0.90 4.60 1.50 7.75 1.20 6.60 3.60 18.85 4.50 23.25 0.25 1.10 0.65 3.25 0.95 4.75 0.30 1.50 0.75 3.90 1 5.25 0.25 1.40 0.65 3.40 0.80 4.45 l0.35 2 0.65 -1.50 c0.35 -0.80 1 -2.35 1.50 -3.45 2.40 -5.55 5.65 -11.45 9.30 -16.90 2.25 -3.35 4.20 -6.20 4.40 -6.35 0.15 -0.15 1.20 -1.35 2.30 -2.75 1.95 -2.50 9.50 -10.20 12.75 -13 11.60 -10.10 28.85 -19.50 42.75 -23.25 0.85 -0.25 2.75 -0.75 4.25 -1.15 3.90 -1.05 13.40 -2.70 19.10 -3.30 6.30 -0.70 56.40 -0.70 62.80 -0.05 19.95 2.15 35.40 7 50.60 15.90 2.60 1.55 4.85 2.95 5 3.15 0.15 0.15 0.75 0.60 1.40 0.90 0.65 0.35 1.55 0.95 2 1.30 0.45 0.40 2.75 2.20 5.10 4.05 4.60 3.65 13.60 12.45 16.75 16.45 1.10 1.35 2.25 2.75 2.55 3.10 1.50 1.60 8.40 12.50 10.55 16.65 4.20 8.10 8.65 19.45 8.65 22.05 0 1.15 0.75 1.70 0.90 0.60 0.05 -0.50 0.35 -2.15 0.60 -3.65z"/>
  <path d="M475.25 878.95 c-14.85 -1.10 -24 -1.95 -30.85 -3 -7.50 -1.05 -10.25 -1.50 -12.65 -1.95 -10.85 -1.95 -23.30 -5.25 -27.20 -7.15 -3.70 -1.85 -4.15 -9.40 -0.70 -12.50 0.55 -0.50 2.10 -1 3.45 -1.15 2.45 -0.30 3.40 -0.10 10.20 1.80 8.05 2.30 12.50 3.35 19.40 4.55 1.40 0.25 3.90 0.70 5.50 1 4.10 0.75 16.20 2.30 23.35 2.95 2.50 0.20 12.85 0.80 23 1.30 15.70 0.75 20 0.80 28.50 0.25 5.50 -0.30 12.55 -0.55 15.60 -0.55 5.50 0 5.65 0.05 7.25 1.45 1.60 1.45 1.65 1.60 1.65 5.50 0 3.70 -0.10 4.15 -1.35 5.35 -0.80 0.85 -2.25 1.50 -3.75 1.80 -3.25 0.65 -53.85 0.90 -61.40 0.35z"/>
  <path d="M498.75 824.90 c-3.35 -1.95 -3.25 -0.95 -3.25 -33.25 0 -28.20 0.05 -29.45 0.95 -30.85 1.40 -2.10 2.90 -2.75 6.40 -2.80 3.80 0 5.35 0.65 6.65 2.85 0.95 1.65 1 2.60 1 30.95 0 29.35 -0.05 30.30 -1.70 32 -1.75 1.70 -7.80 2.40 -10.05 1.10z"/>
  <path d="M424.50 643.50 c-6.70 -4.10 -11.75 -8.15 -15.50 -12.55 -7.20 -8.35 -11.30 -17.10 -13.05 -27.75 -0.70 -4.35 -0.15 -23 0.85 -27.55 l0.20 -1.15 13.70 0 c12.55 0 13.90 -0.10 16 -1 3.25 -1.35 4.90 -3.20 6 -6.65 0.50 -1.55 -0.30 -3.75 -2.05 -5.85 -2.90 -3.40 -3.55 -3.50 -18.80 -3.50 l-13.50 0 0.30 -3.35 c0.60 -6.75 1.35 -13.90 1.60 -15 0.25 -1.10 0.30 -1.10 14.90 -1.25 14.50 -0.15 14.60 -0.15 16.40 -1.35 2.80 -1.90 4.20 -4.35 4.15 -7.30 -0.05 -3.50 -1.60 -5.85 -4.85 -7.45 -2.55 -1.30 -2.60 -1.30 -15.70 -1.30 l-13.15 0 0 -1.60 c0.05 -1.55 0.60 -7.85 1.40 -14.90 l0.35 -3.25 14 -0.10 14 -0.15 2.25 -1.40 c4.30 -2.65 5.70 -6.85 3.45 -10.55 -2.65 -4.40 -3.30 -4.55 -19.25 -4.55 l-13.35 0 0.35 -4.10 c0.20 -2.30 0.60 -6.70 0.90 -9.75 l0.55 -5.65 12.65 0 c7.90 0 13.60 -0.20 15.20 -0.60 4.20 -0.95 8 -5.05 8 -8.60 0 -1.25 -1.70 -4.20 -3.20 -5.45 -2.50 -2.20 -3.80 -2.35 -17.90 -2.35 l-13.50 0 0.35 -4.60 c0.20 -2.55 0.55 -6 0.80 -7.65 0.25 -1.65 0.45 -3.95 0.45 -5.10 l0 -2.10 14.15 -0.15 c13.65 -0.15 14.15 -0.20 16.40 -1.35 2.40 -1.20 3.95 -3.15 5 -6.15 0.60 -1.75 0.55 -2 -0.85 -4.25 -1.90 -3.10 -4.10 -4.50 -7.50 -4.95 -1.55 -0.15 -7.85 -0.25 -14 -0.10 l-11.20 0.20 0 -2.25 c0 -1.25 0.25 -4.55 0.55 -7.30 0.30 -2.75 0.65 -6.20 0.75 -7.60 l0.25 -2.65 12.90 0 c10.30 0 13.30 -0.15 15.10 -0.75 7.90 -2.80 8.70 -11.55 1.35 -15.30 -1.70 -0.85 -3.05 -0.95 -14.70 -0.95 l-12.85 0 0.40 -4.05 c0.15 -2.25 0.50 -4.55 0.75 -5.15 0.20 -0.55 0.65 -2.30 1 -3.80 0.90 -4.15 2.40 -8.35 4.45 -12.50 2.05 -4.10 3.15 -6.10 3.55 -6.50 0.15 -0.15 1.15 -1.55 2.25 -3.15 6.15 -9.05 21.70 -20.85 27.50 -20.85 1.60 0 1.75 0.10 1.75 1.50 0 0.85 -1.10 3.95 -2.45 6.90 -3 6.65 -5.50 13.85 -5.85 17 -0.25 2 -0.05 2.65 1.10 4.45 1.35 2.05 4.35 4.15 5.90 4.15 1.25 0 4.40 -1.75 5.65 -3.10 1.05 -1.15 1.35 -1.85 3.65 -9.40 3.35 -10.95 5.15 -14.95 8.40 -18.55 3.85 -4.30 10.50 -6.90 17.75 -6.95 l2.85 0 0 1.90 c0 1.20 -0.50 2.70 -1.40 4.15 -1.35 2.15 -2.25 3.95 -3.25 6.45 -0.25 0.70 -0.65 1.70 -0.90 2.25 -1.35 3.40 -4.45 13.85 -4.45 15 0 2.25 3.95 6.35 6.50 6.80 1.50 0.25 3.95 -0.65 5.40 -2.05 1.90 -1.80 2.75 -3.65 4.30 -9.25 3.15 -11.75 7.45 -19.15 13.25 -22.80 2.20 -1.40 2.45 -1.45 8.80 -1.45 3.65 0 7.35 0.25 8.30 0.55 4.65 1.45 8.30 3.75 12.25 7.70 3.50 3.50 4.45 4.85 6.60 9.30 1.40 2.85 2.65 5.90 2.85 6.70 0.15 0.85 0.55 2.75 0.90 4.25 0.70 3.25 0.80 18.20 0.15 28.40 l-0.45 7.10 -1.60 0 c-0.85 0 -2.90 -0.40 -4.55 -0.95 -4.15 -1.30 -7.25 -2 -15.45 -3.60 -3.45 -0.65 -43.15 -1.25 -47.45 -0.75 -2.25 0.30 -3.10 0.70 -4.65 2.20 -2.55 2.50 -3.55 5.50 -2.70 8 0.75 2.15 2.70 4.35 4.80 5.50 1.30 0.75 4.60 0.90 25.75 1.15 15.25 0.25 24.90 0.55 26 0.90 0.95 0.30 2.40 0.55 3.15 0.55 3.30 0 14.90 3.35 20.05 5.80 5 2.35 7.10 6.05 6.70 11.70 -0.25 3.45 -1.50 6.05 -3.35 7.15 -2 1.15 -6.40 1.10 -9.95 -0.20 -9.65 -3.45 -12.60 -4.15 -24.95 -5.95 -2 -0.25 -12.65 -0.50 -24.30 -0.50 -22.60 0 -22.90 0.05 -25.75 2.90 -2.85 2.85 -3.40 6 -1.55 9.05 1.45 2.40 2.05 2.90 4.70 4.05 2.20 0.95 3.50 1 23.15 1 22.70 0 27.60 0.40 38.85 2.95 6.05 1.40 14.95 4.70 16.90 6.30 2.45 2 3.35 4.20 3.35 8.20 0 2.80 -0.25 4.10 -1.05 5.55 -2.35 4.10 -7.65 5.15 -14.20 2.70 -1.95 -0.70 -5.30 -1.80 -7.50 -2.45 -10.20 -2.90 -14 -3.20 -39.10 -3.35 l-22.55 -0.15 -1.95 1.55 c-5.25 4.30 -4.95 10.25 0.80 13.60 l2.30 1.35 23.75 0.35 c25.70 0.35 28.50 0.60 38.75 3.50 8.15 2.30 14.70 5.10 16.40 7.10 1.60 1.80 2.35 4.30 2.35 7.65 0 3.90 -1.15 6.30 -3.90 8.15 -2.50 1.65 -8.20 1.70 -11.60 0.15 -7.10 -3.30 -17.55 -5.65 -29.85 -6.65 -9.05 -0.75 -38.25 -0.65 -40 0.10 -1.85 0.85 -4.50 3.45 -5.15 5.10 -1.40 3.75 0.70 8.35 4.70 10.20 2.25 1.05 2.80 1.10 23.05 1.10 19.50 0 22.75 0.15 31.25 1.55 9.95 1.65 24.15 6.55 26.85 9.25 3.10 3.05 2.80 11.95 -0.50 14.80 -2.55 2.25 -7.55 3.10 -10.70 1.85 -2.35 -0.95 -3.35 -1.30 -5.15 -1.95 -0.95 -0.35 -2.20 -0.80 -2.75 -1 -0.55 -0.25 -1.55 -0.55 -2.25 -0.75 -0.70 -0.15 -2.05 -0.55 -3 -0.80 -8.10 -2.20 -17.55 -2.95 -38.75 -2.95 -19.05 0 -19.55 0.05 -21.25 1.05 -2.30 1.45 -3.30 2.60 -4.30 5.25 -0.80 2.05 -0.80 2.35 0.05 4.50 1.10 2.85 3.10 4.85 5.65 5.60 1.35 0.40 8.65 0.60 23.85 0.60 22.90 0 25.70 0.20 35.75 2.60 7.20 1.70 17.60 6.20 19.60 8.50 2.35 2.70 2.50 9.75 0.30 13.10 -2.55 4 -8.40 4.95 -14.15 2.30 -1.80 -0.80 -3.60 -1.50 -4 -1.50 -0.35 0 -0.80 -0.20 -0.95 -0.45 -0.15 -0.25 -0.80 -0.55 -1.40 -0.70 -0.65 -0.15 -2.40 -0.60 -3.90 -1 -2.80 -0.70 -5.85 -1.35 -11.30 -2.30 -1.85 -0.35 -11.25 -0.55 -24.25 -0.55 -20.70 0 -21.25 0.05 -22.95 1.05 -5.05 3.10 -6 8.05 -2.30 12.10 2.95 3.20 1.95 3.05 27.05 3.40 15.50 0.20 24.05 0.50 26.25 0.90 5.05 1 10.60 2.40 12.25 3.10 0.55 0.20 2 0.75 3.25 1.10 l2.25 0.75 0.15 3.40 c0.25 4.85 -0.85 19.85 -1.70 23.65 -2.15 9.25 -6.25 17.80 -11.20 23.25 -4.35 4.80 -6.95 6.90 -12.10 9.70 -5.30 2.85 -12.45 4.60 -19.05 4.60 l-3.45 0 -3.15 -3.15 c-5.70 -5.70 -8 -11.80 -9.70 -25.80 -0.70 -5.70 -2.55 -8.80 -6.20 -10.40 -2.70 -1.25 -6.85 1.50 -8.60 5.70 -2.25 5.35 1.70 24 6.35 30.10 0.50 0.65 0.90 1.95 0.90 2.90 l0 1.70 -4.35 -0.20 c-2.45 -0.10 -5.30 -0.45 -6.35 -0.75 -3.65 -1 -8.30 -3.70 -10.35 -6.05 -2.55 -2.90 -2.55 -2.95 -3.55 -5.05 -2.25 -4.85 -2.75 -6.80 -3.95 -15.75 -0.60 -4.50 -1.85 -8.20 -3.10 -9.50 -1.30 -1.30 -4.10 -2.75 -5.30 -2.75 -1.90 0 -4.85 1.95 -6 4 -1.20 2.15 -1.45 7.80 -0.50 11.90 1.25 5.50 1.55 6.90 1.95 8.10 0.20 0.70 0.70 2.25 1.05 3.50 0.35 1.25 1.40 3.80 2.30 5.70 0.90 1.85 1.65 4.15 1.65 5.10 0 1.60 -0.10 1.70 -1.60 1.70 -1.05 0 -2.85 -0.75 -4.90 -2z"/>
 </g>
 <g fill="#d92414">
  <path d="M295.75 743.05 c-1.85 -0.75 -2.80 -2.30 -2.80 -4.60 -0.05 -2.25 0.80 -5.05 10.05 -32.95 8.05 -24.40 8.20 -24.80 8.20 -29 0 -2.05 -0.30 -4.65 -0.65 -5.75 -0.90 -2.60 -3.25 -6.10 -5.50 -8.10 -1.85 -1.60 -9.50 -8.10 -11.30 -9.60 -3.35 -2.70 -6.55 -5.30 -6.75 -5.55 -0.15 -0.15 -2.45 -2 -5.10 -4.15 -2.65 -2.10 -5.15 -4.15 -5.50 -4.50 -0.35 -0.35 -4.35 -3.65 -8.90 -7.35 -4.55 -3.70 -8.35 -6.85 -8.50 -7 -0.15 -0.15 -1.50 -1.25 -3 -2.50 -1.50 -1.25 -2.85 -2.35 -3 -2.50 -0.15 -0.15 -1.30 -1.10 -2.60 -2.15 -1.30 -1.05 -2.65 -2.15 -3 -2.50 -0.35 -0.35 -3 -2.50 -5.90 -4.85 -2.90 -2.30 -5.35 -4.35 -5.50 -4.50 -0.15 -0.15 -1.50 -1.25 -3 -2.50 -1.50 -1.25 -3.20 -2.60 -3.75 -3.10 -3.35 -2.75 -14.65 -12.10 -15.50 -12.80 -0.55 -0.50 -3.35 -2.75 -6.25 -5.10 -2.90 -2.35 -5.35 -4.35 -5.50 -4.50 -0.15 -0.15 -1.50 -1.25 -3 -2.50 -1.50 -1.25 -3.20 -2.60 -3.75 -3.10 -0.55 -0.45 -2.70 -2.20 -4.75 -3.90 -2.05 -1.70 -4.20 -3.45 -4.75 -3.90 -0.55 -0.50 -2.25 -1.85 -3.75 -3.10 -1.50 -1.25 -2.85 -2.35 -3 -2.50 -0.15 -0.15 -1.30 -1.10 -2.60 -2.15 -1.30 -1.05 -2.65 -2.15 -3 -2.50 -0.35 -0.35 -3 -2.50 -5.90 -4.85 -2.90 -2.30 -5.35 -4.35 -5.50 -4.50 -0.15 -0.15 -1.25 -1.05 -2.50 -2 -1.25 -0.95 -2.80 -2.25 -3.50 -2.80 -2.10 -1.85 -16.60 -13.75 -21.50 -17.70 -2.55 -2.05 -4.90 -4 -5.20 -4.25 -0.30 -0.30 -1.80 -1.50 -3.30 -2.75 -1.50 -1.25 -2.85 -2.35 -3 -2.50 -0.60 -0.70 -8.80 -7.15 -9.35 -7.35 -0.30 -0.15 -0.95 -1 -1.40 -1.95 -1.55 -3.30 0.05 -6 4.90 -8.35 9.05 -4.40 22.70 -11 29.20 -14.15 10.90 -5.30 12.90 -7.60 12.90 -14.95 0 -2.20 -0.30 -4.90 -0.60 -6 -0.70 -2.20 -3.10 -10.70 -4.40 -15.50 -1.15 -4.20 -1.75 -6.25 -2.25 -8 -0.25 -0.80 -0.90 -3.30 -1.50 -5.50 -0.60 -2.20 -1.25 -4.65 -1.50 -5.50 -0.20 -0.80 -0.80 -2.85 -1.25 -4.50 -0.45 -1.65 -1.45 -5.35 -2.30 -8.25 -0.80 -2.90 -1.70 -6.15 -2 -7.25 -0.30 -1.10 -0.75 -2.55 -0.95 -3.25 -0.25 -0.70 -0.65 -2.35 -1 -3.75 -0.35 -1.35 -0.75 -3.05 -1 -3.75 -0.20 -0.70 -0.65 -2.15 -0.95 -3.25 -0.30 -1.10 -1.45 -5.15 -2.50 -9 -1.10 -3.85 -2.35 -8.35 -2.80 -10 -1.10 -3.95 -1.70 -6.15 -2.30 -8.25 -0.30 -0.95 -0.70 -2.40 -0.95 -3.25 -0.75 -2.60 -2.60 -9.40 -4.25 -15.60 -0.60 -2.20 -0.65 -3.15 -0.20 -4.20 1.05 -2.60 4 -4.10 6.70 -3.40 2.55 0.70 9.15 2.35 13.65 3.40 1 0.25 6.35 1.60 11.85 3.05 5.50 1.40 10.90 2.80 12 3.05 1.10 0.20 6.40 1.55 11.75 2.90 5.35 1.35 12.10 3.05 15 3.75 2.90 0.75 6.05 1.55 7 1.80 0.95 0.30 4.55 1.20 8 2 3.45 0.85 7.60 1.90 9.25 2.30 1.65 0.45 3.85 1 4.90 1.25 1 0.25 2.70 0.65 3.75 0.90 8.65 2.10 10.25 2.15 14.85 0.45 2.25 -0.85 5.15 -3.30 6.50 -5.45 1.25 -1.95 2.70 -6.25 3.70 -10.95 0.80 -3.80 1.30 -6 2.55 -11.25 0.60 -2.45 1.25 -5.40 1.50 -6.50 4.45 -19.60 5.55 -23.90 6.45 -24.95 0.45 -0.50 1.45 -1.25 2.25 -1.65 2.35 -1.20 4.70 -0.15 8.65 4.05 6.05 6.30 17.90 18.95 20.45 21.75 1.35 1.50 3.60 3.85 4.95 5.30 1.40 1.40 3.75 3.90 5.25 5.55 1.50 1.60 6.05 6.45 10.05 10.70 4 4.25 8.65 9.20 10.25 10.95 1.65 1.80 4.10 4.40 5.45 5.80 1.40 1.40 4.10 4.25 6 6.30 1.95 2.05 6.65 7.10 10.55 11.20 3.85 4.15 8 8.60 9.25 10 3.35 3.75 9.05 9.25 10.50 10.10 1.30 0.80 1.35 0.90 1.15 5.10 -0.20 5 -1.05 16 -1.40 18.55 -0.15 0.95 -0.35 3.45 -0.50 5.50 -0.15 2.05 -0.35 4.65 -0.50 5.75 -0.15 1.10 -0.35 4.20 -0.50 6.95 -0.20 2.70 -0.45 5.15 -0.65 5.40 -0.15 0.30 -0.35 2.50 -0.40 4.85 -0.05 2.40 -0.40 5.50 -0.80 6.95 -0.60 2.50 -0.80 2.70 -3.60 4.15 -5.75 2.90 -8.80 5.70 -12.90 11.75 -1.45 2.20 -2.95 4.95 -3.25 6.20 -0.35 1.25 -1.05 3.50 -1.50 5 -0.85 2.55 -0.90 6.80 -1.05 55.75 -0.10 45.75 0 53.70 0.65 58.05 0.40 2.80 0.70 5.40 0.65 5.75 -0.30 1.65 3.65 20.45 5.25 24.90 0.35 1 0.95 2.70 1.25 3.80 0.70 2.35 2.40 6.85 3.30 9 0.40 0.85 1.15 2.75 1.75 4.25 3.40 8.60 11.05 21.10 19 31.05 5.85 7.30 15.75 16.95 21.50 20.95 0.95 0.65 1.85 1.35 2 1.50 0.15 0.20 2.95 2.15 6.25 4.35 6.30 4.20 11.10 6.95 18.40 10.50 2.40 1.20 4.35 2.35 4.35 2.55 -0.05 1 -1.10 1.75 -2.80 1.90 -1.10 0.10 -4.10 0.55 -6.70 0.95 -10.20 1.70 -23.60 3.75 -27.75 4.30 -1.90 0.25 -4.75 0.65 -6.25 0.90 -6.90 1.20 -16.35 2.65 -18.25 2.80 -0.80 0.10 -2.50 0.40 -3.75 0.70 -1.25 0.30 -3.10 0.55 -4.10 0.55 -1 0 -2.35 0.20 -3 0.45 -0.65 0.25 -3.05 0.70 -5.40 1.05 -2.35 0.30 -5.50 0.80 -7 1 -1.50 0.25 -4.20 0.70 -6 0.95 -1.80 0.30 -6.15 1 -9.75 1.55 -3.55 0.55 -7.85 1.25 -9.50 1.50 -3.20 0.50 -10.70 1.75 -15.25 2.50 -3.25 0.60 -5.40 0.60 -6.75 0.05z"/>
  <path d="M723.25 743.15 c-0.80 -0.10 -3.40 -0.50 -5.75 -0.90 -2.35 -0.40 -5.80 -0.95 -7.75 -1.20 -1.90 -0.25 -6.65 -0.95 -10.50 -1.55 -3.85 -0.60 -8.55 -1.30 -10.50 -1.50 -3.75 -0.45 -9.30 -1.25 -13.75 -2.05 -1.50 -0.25 -4.55 -0.65 -6.75 -0.95 -4.95 -0.60 -9.65 -1.30 -13.25 -2 -1.50 -0.30 -4.65 -0.80 -7 -1.05 -2.35 -0.25 -5.50 -0.70 -7 -0.95 -2.60 -0.40 -5.35 -0.80 -13.75 -1.95 -8.10 -1.10 -14.40 -2.15 -15.55 -2.60 -0.70 -0.25 -2.55 -0.45 -4.15 -0.45 -1.60 0 -3.55 -0.20 -4.35 -0.50 -0.80 -0.25 -2.55 -0.60 -3.95 -0.70 -3.95 -0.35 -9.90 -1.20 -11.10 -1.55 -1.45 -0.45 -1.50 -2.05 -0.05 -2.85 4.45 -2.60 17.55 -11.55 18.90 -12.90 0.15 -0.15 1.95 -1.70 4 -3.50 6.60 -5.75 11.95 -11.45 18.65 -19.85 3.65 -4.60 9.55 -13.25 11.40 -16.65 0.65 -1.25 1.35 -2.35 1.50 -2.50 0.30 -0.25 5.80 -11.45 7.20 -14.65 1.10 -2.60 3.75 -9.70 4.30 -11.70 0.25 -0.90 0.65 -2.40 0.90 -3.25 2.75 -9.60 3.95 -15.70 5.25 -26.40 0.65 -5.25 0.80 -15.35 0.80 -62.30 0 -55.55 0 -56.05 -1.05 -59.25 -3.50 -10.75 -9.95 -17.40 -20.85 -21.50 l-3.20 -1.20 0.35 -2.25 c0.15 -1.25 0.50 -4.60 0.80 -7.50 0.95 -10.30 1.95 -20.40 2.95 -29.50 0.25 -2.60 0.65 -6.90 0.80 -9.55 l0.35 -4.75 4.05 -2 c5.70 -2.80 8.25 -4.90 17.30 -14.50 2.05 -2.15 9 -9.45 15.50 -16.10 6.45 -6.70 11.85 -12.40 12 -12.60 0.30 -0.45 24.45 -25.80 31.50 -33 1.25 -1.25 4.05 -4.20 6.25 -6.55 2.15 -2.30 6.65 -7 10 -10.45 3.30 -3.45 7.30 -7.70 8.95 -9.50 3.15 -3.50 5.90 -5.50 7.60 -5.50 1.95 0 4.30 2.10 5 4.50 0.65 2.15 3.30 14 5.25 23.25 0.95 4.35 1.65 7.65 2.45 11.25 0.20 0.95 0.80 3.65 1.25 6 1.75 8.50 5 13.35 10.60 15.80 3.30 1.50 6.75 1.55 12 0.25 2.15 -0.55 6.70 -1.65 10.15 -2.50 12.40 -2.95 20.90 -5.05 30.25 -7.30 11.70 -2.85 20.75 -5 26 -6.25 5.25 -1.25 14.50 -3.45 24.80 -6 9.70 -2.35 12.30 -2.50 13.85 -0.85 2.45 2.60 2.40 2.90 -1.45 16.20 -0.80 2.80 -1.45 5.40 -1.45 5.80 0 0.35 -0.45 2.15 -1.05 3.90 -0.60 1.75 -1.15 3.75 -1.30 4.40 -0.10 0.65 -0.50 1.95 -0.90 2.95 -0.40 0.95 -0.75 2.20 -0.75 2.75 0 0.55 -0.45 2.25 -0.95 3.80 -0.55 1.55 -1.25 4.15 -1.60 5.80 -0.35 1.65 -0.80 3.35 -1 3.80 -0.25 0.45 -0.50 1.40 -0.65 2.15 -0.25 1.40 -2.05 7.90 -3.75 13.80 -0.55 1.80 -1.20 4.25 -1.50 5.50 -0.30 1.25 -1 3.70 -1.55 5.50 -0.90 3.15 -2.05 7.20 -2.30 8.25 -0.05 0.30 -0.60 2.30 -1.20 4.50 -0.60 2.20 -1.40 5.25 -1.80 6.75 -1.65 6.20 -2.75 9.80 -3.20 10.60 -0.30 0.50 -0.50 1.25 -0.50 1.65 0 0.45 -0.45 2.20 -1 3.90 -0.55 1.70 -1.10 3.80 -1.20 4.60 -0.10 0.85 -0.75 3.55 -1.40 6 -1 3.95 -1.10 4.80 -0.55 6.90 0.30 1.30 1.05 3.15 1.65 4.05 2.25 3.75 3.95 4.70 29.75 17 15.55 7.45 15.25 7.25 15.25 10.95 0 1.45 -0.30 3 -0.60 3.40 -0.35 0.45 -2.45 2.25 -4.65 4 -3.50 2.80 -11.65 9.50 -14.50 11.90 -0.55 0.45 -2.90 2.40 -5.25 4.30 -4.10 3.30 -6.35 5.15 -13.80 11.35 -1.90 1.55 -7.15 5.90 -11.70 9.65 -9.15 7.60 -10.10 8.35 -12.25 10.20 -0.85 0.70 -2.55 2.10 -3.75 3.05 -1.90 1.50 -7.10 5.80 -10.25 8.40 -0.55 0.50 -2.25 1.85 -3.75 3.10 -1.50 1.25 -2.85 2.40 -3 2.55 -0.15 0.15 -2.15 1.80 -4.50 3.70 -2.35 1.90 -8.35 6.85 -13.35 11 -4.95 4.10 -11.80 9.75 -15.15 12.50 -3.35 2.75 -6.95 5.75 -8 6.65 -1.05 0.90 -2.70 2.25 -3.65 3 -1.70 1.30 -9.90 8.10 -14.85 12.35 -2.40 2.05 -3.05 2.60 -7.25 6.05 -4.60 3.80 -18.50 15.30 -19.50 16.15 -0.55 0.45 -3.25 2.65 -6 4.95 -18.35 15.20 -20.45 17.25 -22.20 22.30 -1.20 3.50 -0.75 10.70 0.95 14.55 0.35 0.80 5.75 17.25 15 45.75 0.75 2.35 1.55 4.90 1.70 5.65 0.45 1.85 -0.95 4.70 -2.75 5.60 -1.35 0.75 -2.15 0.80 -5.20 0.40z"/>
  <path d="M641.40 355.65 c-0.50 -0.15 -1 -1.10 -1.35 -2.55 -1.95 -9 -7.90 -21.95 -14.90 -32.50 -2.10 -3.10 -4.05 -5.90 -4.35 -6.25 -0.30 -0.35 -1.45 -1.75 -2.55 -3.10 -3.15 -4 -12.15 -12.80 -16.75 -16.45 -2.35 -1.85 -4.65 -3.65 -5.10 -4.05 -0.45 -0.35 -1.35 -0.95 -2 -1.30 -0.65 -0.30 -1.25 -0.75 -1.40 -0.90 -0.55 -0.70 -10 -6.05 -14.50 -8.15 -8 -3.85 -17.65 -6.95 -27.25 -8.85 -11.05 -2.20 -17.35 -2.65 -41.10 -2.90 -18.80 -0.25 -23.75 -0.15 -29.50 0.55 -3.80 0.40 -7.80 0.85 -8.90 0.95 -2 0.20 -10.50 1.95 -13.75 2.80 -0.95 0.30 -2.55 0.70 -3.50 0.95 -11.90 3.15 -28.55 11.75 -39 20.05 -5.60 4.50 -13.45 12.10 -16.75 16.30 -1.10 1.40 -2.15 2.60 -2.30 2.75 -1.25 1 -8.90 13.25 -10.95 17.50 -1.40 2.90 -2.75 5.65 -3 6.10 -0.30 0.50 -0.50 1.15 -0.50 1.50 -0.05 1.15 -1.25 2.25 -2.85 2.60 -1.55 0.35 -1.60 0.30 -1.90 -1.55 -0.15 -1.05 -0.55 -3 -0.80 -4.40 -0.25 -1.35 -0.70 -3.75 -1 -5.25 -0.30 -1.50 -0.70 -3.65 -0.95 -4.75 -0.90 -4.40 -3.30 -16.65 -4.50 -23.25 -0.60 -3.15 -1.25 -6.65 -1.50 -7.75 -0.25 -1.10 -0.65 -3.35 -0.95 -5 -0.80 -4.60 -3.25 -17.20 -4.05 -21 -0.25 -1.10 -0.65 -3.35 -0.95 -5 -0.55 -2.95 -2.10 -11.20 -3.05 -16 -0.25 -1.35 -0.95 -4.85 -1.50 -7.75 -0.55 -2.90 -1.20 -6.25 -1.45 -7.50 -0.25 -1.25 -0.70 -3.60 -1 -5.25 -0.55 -3.05 -2.10 -11.20 -3.10 -16.25 -0.80 -3.95 -1.20 -6.10 -3.25 -16.65 -1.55 -8.20 -1.70 -9.65 -1.15 -10.95 0.65 -1.60 3.10 -3.40 4.65 -3.40 0.80 0 6.60 2.80 7.30 3.50 0.15 0.15 1.15 0.75 2.25 1.35 2.95 1.55 5.20 2.85 8.15 4.60 1.45 0.85 2.75 1.55 2.90 1.55 0.15 0 0.90 0.40 1.60 0.90 0.75 0.55 2.60 1.65 4.10 2.45 1.50 0.85 4.90 2.75 7.50 4.25 2.60 1.50 5.75 3.30 7 4 1.25 0.70 6.55 3.75 11.75 6.75 14.10 8.10 14.70 8.35 19.90 8.60 3.65 0.10 5 -0.05 7.50 -0.95 3.50 -1.30 6.35 -3.10 8.65 -5.60 0.95 -1 7.25 -12.95 15.75 -29.90 7.80 -15.55 14.35 -28.30 14.60 -28.40 0.20 -0.10 0.35 -0.40 0.35 -0.70 0 -0.55 4.05 -9 4.50 -9.40 0.45 -0.40 9.50 -18.90 9.50 -19.45 0 -0.25 0.15 -0.55 0.40 -0.65 0.20 -0.05 1.55 -2.60 3 -5.65 1.45 -3 2.95 -6.05 3.35 -6.75 0.40 -0.70 3.75 -7.40 7.50 -14.85 7.50 -15.05 8.10 -15.85 12.05 -15.75 1.80 0 2.50 0.30 3.85 1.70 1 1.05 5.05 8.40 10.80 19.90 5 10.05 19.30 38.45 31.70 63.20 17.90 35.70 22.95 45.35 24.55 47.05 7.25 7.45 16.70 8.25 26.60 2.25 1.75 -1.10 3.35 -2 3.50 -2 0.15 0 0.90 -0.40 1.60 -0.90 0.75 -0.55 2.95 -1.80 4.85 -2.85 1.95 -1.05 8 -4.50 13.50 -7.65 5.50 -3.15 11 -6.30 12.25 -7 1.25 -0.70 4.50 -2.55 7.25 -4.10 2.75 -1.55 6 -3.40 7.25 -4.10 3.55 -2 5.60 -3.15 7.50 -4.30 2.35 -1.45 4.55 -1.40 6.40 0.15 2.10 1.75 2.25 4.10 0.80 11.15 -0.70 3.20 -1.45 7.20 -1.70 8.85 -0.75 5.10 -1.45 8.75 -1.70 9.20 -0.15 0.20 -0.40 1.30 -0.50 2.35 -0.15 1.05 -0.50 3.10 -0.80 4.45 -0.30 1.40 -0.70 3.75 -0.95 5.25 -0.80 4.70 -1.50 8.05 -1.85 8.60 -0.20 0.25 -0.50 1.75 -0.70 3.30 -0.40 2.60 -1.10 6.85 -2.45 14.20 -0.25 1.55 -0.70 3.65 -1 4.75 -0.25 1.05 -0.85 4.15 -1.30 6.90 -0.45 2.75 -1 5.90 -1.25 7 -0.25 1.10 -0.70 3.35 -1 5 -0.30 1.65 -1 4.80 -1.50 7 -0.50 2.20 -1.20 5.90 -1.50 8.25 -0.30 2.35 -0.85 5.05 -1.15 6 -0.25 0.95 -0.55 2.30 -0.65 3 -0.20 2.55 -1.15 7.35 -1.90 9.75 -0.45 1.40 -1.05 4.40 -1.30 6.75 -0.60 4.60 -1.55 9.60 -2.75 14.15 -0.40 1.60 -0.75 3.70 -0.75 4.70 0 1 -0.20 2.60 -0.45 3.60 -0.55 2.20 -1.30 5.75 -2.05 10.05 -0.30 1.80 -0.85 4.25 -1.15 5.50 -0.30 1.25 -0.50 2.45 -0.45 2.70 0.10 0.25 0 1.10 -0.15 1.85 -0.30 1.40 -0.65 1.55 -2.35 1.10z"/>
  <path d="M378.35 345.70 c-0.20 -0.20 -0.35 -1.10 -0.35 -2.05 0 -1.35 0.20 -1.65 1.05 -1.65 0.85 0 1 0.25 0.85 1.85 -0.15 1.75 -0.85 2.55 -1.55 1.85z"/>
 </g>
 <g fill="#1c1c1c">
  <path d="M503.50 904.90 c-4.25 -0.25 -10 -0.35 -12.75 -0.20 -6.70 0.35 -28.80 -1.25 -44.25 -3.20 -9.90 -1.20 -15.10 -2.05 -21.50 -3.50 -1.25 -0.30 -3.35 -0.70 -4.75 -1 -1.35 -0.25 -3.40 -0.70 -4.50 -1 -1.10 -0.30 -2.80 -0.75 -3.75 -1 -3.65 -0.85 -12.20 -3.60 -14.75 -4.75 -0.80 -0.35 -2.70 -1.15 -4.20 -1.70 -7 -2.80 -13 -7.15 -15.90 -11.65 l-1.40 -2.15 0 -14.80 c0 -14.75 0 -14.75 1.25 -17.20 2.85 -5.50 10.25 -10.80 21.50 -15.40 0.70 -0.25 1.70 -0.65 2.25 -0.90 1.45 -0.60 9.40 -3.15 13.50 -4.35 6.10 -1.80 17.05 -4.25 24.65 -5.55 9.80 -1.70 14.45 -2.35 21.60 -3.05 3.15 -0.30 7.25 -0.75 9.10 -1.05 1.85 -0.25 5.70 -0.45 8.60 -0.45 3.90 0 5.30 -0.15 5.30 -0.60 0 -0.35 0 -22.45 0 -49.15 l0 -48.50 -1.60 -0.30 c-0.90 -0.20 -3.45 -0.60 -5.65 -0.95 -4.20 -0.60 -9.75 -1.65 -12.75 -2.45 -0.95 -0.25 -3.45 -0.95 -5.50 -1.45 -10.40 -2.75 -27.25 -9.80 -35.25 -14.70 -3.50 -2.15 -9.45 -6.10 -9.75 -6.40 -0.15 -0.15 -1.05 -0.85 -2 -1.50 -6.75 -4.75 -15.10 -13.20 -21.40 -21.75 -1.40 -1.90 -2.75 -3.70 -3 -4 -0.65 -0.85 -6.30 -10.40 -7.35 -12.50 -0.95 -1.85 -2.95 -6.25 -4.50 -10 -4.05 -9.55 -7.05 -21.95 -8 -33 -0.40 -4.60 -0.30 -108.30 0.10 -110.40 0.45 -2.40 3.05 -6.05 5.35 -7.55 2.90 -1.90 5.45 -2.50 10.35 -2.55 l4.25 0 0.60 -6 c0.30 -3.30 0.80 -8.90 1.10 -12.50 0.30 -3.55 0.75 -8.65 1 -11.25 0.25 -2.60 0.70 -7.55 1 -11 0.30 -3.45 0.75 -8.60 1 -11.50 0.25 -2.90 0.70 -8.05 1 -11.50 0.30 -3.45 0.75 -8.70 1.05 -11.75 0.25 -3 0.70 -7.85 0.95 -10.75 0.25 -2.90 0.70 -7.95 1 -11.25 1.65 -18.70 1.90 -20.55 4.50 -30 1.50 -5.50 6.35 -15.95 9.75 -21.10 0.70 -1.05 1.55 -2.30 1.90 -2.85 6.35 -9.60 18.75 -21.25 28.50 -26.75 1 -0.55 2.60 -1.45 3.50 -1.95 7.65 -4.30 21.25 -8.40 31.10 -9.35 4.85 -0.45 62.15 -0.25 66.50 0.25 4.90 0.55 9.40 1.30 11.75 1.95 0.95 0.25 2.55 0.70 3.50 1 3.80 1.05 7.50 2.40 11.35 4.10 1.20 0.50 2.25 0.95 2.35 0.95 0.50 0 9.25 5.25 12.70 7.65 4 2.70 15.70 13.95 18.65 17.85 0.90 1.25 1.80 2.35 1.95 2.50 0.15 0.15 1 1.40 1.90 2.75 0.85 1.40 1.75 2.75 1.95 3 0.95 1.25 5.05 9.25 6.80 13.25 0.75 1.65 2.05 5.60 3.25 9.50 0.95 3.05 2.50 11.65 2.65 14.50 0.50 9.65 -0.15 26.25 -1.30 33.15 -0.40 2.55 -0.85 7.30 -1 10.60 -0.10 3.30 -0.45 8.15 -0.75 10.75 -0.25 2.60 -0.60 6.55 -0.70 8.75 -0.55 9.85 -0.85 13.70 -1.35 16.10 -0.30 1.45 -0.40 2.85 -0.25 3.10 0.40 0.65 -0.60 7.60 -1.20 8.30 -0.25 0.30 -1.55 1.10 -2.85 1.70 -3.30 1.60 -7 3.90 -9.55 5.95 -5.20 4.15 -9.65 12.80 -10.45 20.25 -0.15 1.15 -0.30 24.85 -0.40 52.60 -0.05 34.20 -0.30 51.45 -0.65 53.40 -0.30 1.55 -0.45 3.20 -0.30 3.60 0.15 0.40 0.05 1.50 -0.30 2.45 -0.30 0.95 -0.65 2.90 -0.75 4.40 -0.15 1.45 -0.65 3.80 -1.20 5.15 -0.50 1.40 -1.20 3.50 -1.55 4.75 -2.10 7.75 -9.05 20.70 -13.90 25.85 -0.75 0.80 -2.35 2.55 -3.60 3.90 -4.85 5.40 -12.35 11.25 -19.10 14.90 -3.45 1.90 -10.55 4.40 -17.65 6.25 -4.95 1.30 -3.85 1.20 -16.80 1.10 -7.45 -0.05 -10.95 0.05 -11.15 0.45 -0.45 0.70 -4.30 0.75 -4.30 0.05 0 -0.35 -0.35 -0.35 -1.05 0 -0.65 0.40 -2.50 0.45 -5.10 0.25 -2.25 -0.15 -13.95 -0.40 -25.95 -0.55 -16.55 -0.20 -21.90 -0.10 -21.90 0.35 0 0.40 -0.60 0.50 -1.75 0.30 -0.95 -0.15 -1.75 -0.10 -1.75 0.10 0 0.55 8.90 5.15 13.80 7.10 8.55 3.40 12.70 4.50 23.15 6.20 5.70 0.90 46.40 1.10 51.35 0.25 5.20 -0.95 8.40 -1.60 9.70 -2 0.70 -0.20 2.25 -0.65 3.50 -1 1.25 -0.35 2.70 -0.80 3.25 -1 0.55 -0.20 1.80 -0.70 2.75 -1 4.70 -1.65 14.40 -7 19.10 -10.45 8.55 -6.40 18.45 -17.05 22.75 -24.45 0.75 -1.30 1.50 -2.45 1.65 -2.60 0.60 -0.45 5.25 -9.65 7.10 -14 1.80 -4.15 3.65 -9.45 4.85 -14 0.35 -1.25 0.80 -2.90 1.05 -3.75 0.40 -1.45 0.70 -3.20 2.05 -11.75 0.45 -2.70 0.65 -17.35 0.75 -52 0.10 -26.55 0.25 -49.50 0.40 -51 0.35 -3.55 1.25 -5.40 4.05 -7.95 2.45 -2.25 3.55 -2.80 7.75 -3.85 3.55 -0.85 5.70 -0.85 8.55 0 4.65 1.40 7.65 3.70 9.30 7.15 0.85 1.80 0.90 4.55 0.90 53.65 0 28.45 0.20 51.90 0.40 52.05 0.25 0.20 0.20 2.45 -0.15 5 -0.30 2.60 -0.65 5.60 -0.75 6.70 -0.10 1.10 -0.45 3.35 -0.75 5 -0.35 1.65 -0.70 3.70 -0.85 4.50 -0.15 0.85 -0.45 1.60 -0.65 1.75 -0.20 0.15 -0.50 1.25 -0.70 2.50 -0.40 3.10 -1.05 5.55 -1.75 6.90 -0.30 0.60 -1.35 3.55 -2.35 6.60 -0.95 3 -1.95 5.60 -2.20 5.75 -0.30 0.20 -0.50 0.65 -0.50 1.05 0 0.80 -4.35 9.80 -6.75 13.95 -7.85 13.65 -20.05 27.55 -31.85 36.35 -9.15 6.85 -24.55 14.80 -31.70 16.40 -1.30 0.30 -2.80 0.80 -3.35 1.10 -1.35 0.70 -8.25 2.40 -9.90 2.40 -0.75 0 -2.20 0.30 -3.30 0.70 -1.10 0.40 -2.85 0.70 -3.90 0.70 -1.05 0 -2.05 0.30 -2.30 0.70 -0.55 0.80 -0.35 95.15 0.20 95.70 0.25 0.25 3.60 0.60 7.50 0.80 16 0.80 35.60 3.45 51.35 6.90 1.50 0.35 3.55 0.75 4.50 1 5.95 1.30 19.65 5.40 21.60 6.50 0.50 0.30 1.15 0.50 1.45 0.50 1.15 0 11.25 5.15 14.15 7.20 4.05 2.90 5.80 4.60 7.60 7.25 l1.45 2.25 0.10 15.10 c0.10 12.85 0 15.40 -0.65 17 -0.90 2.15 -6.15 7.55 -8.45 8.70 -0.85 0.40 -1.60 0.85 -1.75 1 -0.50 0.50 -6.15 3.05 -8.45 3.85 -1.25 0.40 -3.40 1.30 -4.80 1.95 -1.45 0.60 -3.10 1.25 -3.80 1.40 -1.40 0.25 -6.05 1.50 -9.70 2.60 -4.90 1.50 -8.55 2.30 -14.25 3.20 -3.15 0.45 -7.10 1.20 -8.75 1.65 -1.65 0.45 -3.45 0.80 -4 0.75 -0.55 0 -2.40 0.20 -4.10 0.55 -1.70 0.30 -3.25 0.55 -3.50 0.45 -0.20 -0.05 -1.85 0.15 -3.65 0.50 -1.80 0.30 -6.40 0.70 -10.25 0.85 -3.85 0.15 -8.45 0.55 -10.25 0.85 -1.80 0.25 -7.95 0.60 -13.75 0.70 -5.75 0.05 -13.65 0.25 -17.50 0.35 -3.85 0.10 -10.50 0 -14.75 -0.25z m31.65 -27.80 c3.55 -0.65 5.10 -2.40 5.10 -5.65 0 -2.25 -0.20 -2.70 -1.65 -4 -1 -0.90 -2.15 -1.45 -3.10 -1.45 -0.85 0 -1.50 -0.15 -1.50 -0.40 0 -0.20 -2.10 -0.20 -4.60 0.05 -2.55 0.20 -5.65 0.50 -6.90 0.60 -8.85 0.80 -12.50 0.85 -12.50 0.30 0 -0.45 -1.50 -0.55 -5.85 -0.40 -3.25 0.10 -6.55 0.35 -7.35 0.50 -0.80 0.15 -1.95 0.05 -2.60 -0.15 -0.65 -0.25 -5.65 -0.50 -11.05 -0.55 -5.45 -0.05 -10.10 -0.30 -10.40 -0.50 -0.25 -0.20 -3.55 -0.50 -7.25 -0.65 -6.85 -0.30 -11.85 -0.80 -17.25 -1.75 -1.65 -0.30 -4.55 -0.75 -6.50 -1.05 -1.90 -0.25 -4.75 -0.70 -6.25 -1.05 -1.50 -0.30 -3.75 -0.75 -5 -0.95 -3.75 -0.65 -6.95 -1.40 -12.75 -3 -10.95 -3.10 -10.30 -3.05 -12.80 -0.55 -2.25 2.20 -2.55 4.30 -1.05 6.80 1.35 2.20 4.55 3.50 15.10 6.15 9.30 2.35 13.05 3.05 26.90 5.05 6.85 1.05 15.95 1.90 30.85 3 7.50 0.55 55.15 0.30 58.40 -0.35z m-29.50 -53.70 c3.45 -1.80 3.35 -1 3.35 -31.60 0 -26.85 -0.05 -27.80 -1 -29.45 -2.50 -4.20 -8.25 -3.75 -10.45 0.85 -1.10 2.20 -1.10 2.45 -0.95 29.15 0.15 27.70 0.20 28 2.10 29.90 1.75 1.75 4.90 2.25 6.95 1.15z m-77.70 -182.95 c-1.55 -3.05 -2 -4.30 -3 -7.95 -2.30 -8.20 -3 -12.10 -3.10 -17.40 -0.05 -4.25 0.10 -5.10 1.10 -6.90 2.80 -5 10.10 -5.70 14.40 -1.45 1.60 1.60 3.50 9.05 3.60 13.95 0 1.85 0.40 3.35 1.90 7.55 0.80 2.20 2.15 5.25 2.75 6 4.05 5.70 10.20 9.05 17.60 9.60 l3 0.25 -0.85 -1.20 c-4 -5.55 -7.35 -18.15 -7.35 -27.40 0 -6.30 1.70 -9.75 5.70 -11.55 7.40 -3.35 13.30 2.95 13.30 14.25 0 1.35 0.20 3.15 0.45 4 3.10 10.30 4.70 13.55 8.80 17.65 3.60 3.60 4 3.70 11 2.45 9.70 -1.75 16.55 -5.65 23.75 -13.60 4.95 -5.45 9.05 -14 11.20 -23.25 0.80 -3.50 2 -19 1.70 -22.15 -0.15 -1.80 -0.30 -1.95 -2.40 -2.65 -1.25 -0.35 -2.70 -0.90 -3.25 -1.10 -1.50 -0.65 -7.65 -2.25 -11.50 -3 -7.20 -1.40 -11.70 -1.65 -30.50 -1.50 -21.40 0.20 -20.60 0.30 -23.55 -2.90 -2.50 -2.75 -3.25 -6.25 -2.05 -9.80 0.85 -2.45 2.15 -4 4.45 -5.30 1.80 -1.10 2.15 -1.10 24.50 -1.05 13.55 0 23.85 0.25 25.65 0.55 5.30 0.95 8.45 1.60 11.25 2.30 1.50 0.40 3.25 0.85 3.90 1 0.60 0.15 1.25 0.45 1.40 0.70 0.15 0.25 0.60 0.45 0.95 0.45 0.40 0 2.20 0.70 4 1.50 3.85 1.75 5.05 1.85 7.90 0.50 3.80 -1.80 5.75 -6.85 4.15 -10.70 -1 -2.40 -1.55 -2.90 -5.35 -4.90 -14.25 -7.40 -31.25 -10 -60 -9.15 -13.30 0.40 -16.20 0.20 -18.10 -1.45 -3.10 -2.70 -4.20 -8.20 -2.35 -12.20 1.10 -2.45 1.70 -3.15 4.05 -4.55 1.65 -1 2.35 -1.05 22.70 -1.05 23 0 31.95 0.70 40.50 3 1.10 0.30 2.55 0.70 3.25 0.85 0.70 0.15 1.50 0.45 1.75 0.65 0.30 0.15 1.50 0.65 2.75 1 1.25 0.35 2.50 0.80 2.75 1 0.30 0.20 1.45 0.60 2.65 1 4.80 1.50 10.10 -2.65 10.10 -8 0 -1.70 -1.10 -4.70 -2.15 -5.70 -1.25 -1.25 -6.50 -3.65 -11.60 -5.30 -2.75 -0.90 -5.45 -1.80 -6 -2.05 -0.55 -0.20 -1.65 -0.50 -2.50 -0.60 -0.80 -0.10 -3.30 -0.55 -5.50 -1 -2.20 -0.45 -5.35 -1.05 -7 -1.30 -1.65 -0.30 -13.10 -0.70 -25.40 -0.90 -25.30 -0.35 -24.50 -0.20 -27 -4.30 -1.15 -1.80 -1.45 -2.85 -1.45 -5.20 0 -1.60 0.25 -3.55 0.55 -4.35 0.70 -1.75 3.30 -4.35 5.20 -5.20 1.75 -0.75 33.95 -0.85 43 -0.10 12.20 1 22.45 3.25 29.85 6.60 4.60 2.10 9.25 0.80 11.50 -3.15 1.65 -2.95 1.10 -6.95 -1.35 -9.75 -2 -2.30 -13 -6.70 -20.65 -8.25 -11.65 -2.40 -12.30 -2.45 -37.25 -2.60 l-21 -0.10 -2.30 -1.35 c-3.30 -1.95 -4.65 -4.35 -4.70 -8.40 0 -3.80 0.95 -5.80 3.90 -8.20 l1.95 -1.55 24.05 0.15 c13.55 0.05 25.65 0.35 27.60 0.65 7.60 1.10 13.85 2.70 20.50 5.15 4.25 1.60 5.80 1.60 8.25 0.25 4.95 -2.80 5.30 -9.75 0.70 -13.70 -2.30 -1.95 -14.80 -6.15 -22.45 -7.50 -11.15 -2.05 -15.75 -2.30 -35.25 -2.25 -11.50 0 -19.80 -0.20 -20.95 -0.50 -3.95 -1.05 -6.05 -4.20 -6.05 -9.15 0 -3.60 0.45 -4.80 2.60 -6.95 2.85 -2.90 3 -2.90 27.25 -2.90 12.70 0 23.75 0.20 25.80 0.50 11.10 1.60 15.60 2.65 21.60 4.85 6 2.20 8 2.50 10 1.45 2.80 -1.50 4.25 -5.60 3.25 -9.20 -1.10 -4.15 -4.50 -6.60 -12.70 -9.35 -4.75 -1.55 -11.90 -3.25 -13.70 -3.25 -0.80 0 -2.10 -0.20 -2.90 -0.50 -2.50 -0.85 -9.30 -1.15 -29.85 -1.30 -10.95 -0.05 -20.45 -0.25 -21.10 -0.40 -0.70 -0.20 -2.05 -1 -3 -1.90 -5.85 -5.10 -3.40 -15.70 4 -17.15 2.15 -0.40 33.70 -0.40 42 0 8.80 0.45 16.65 1.85 24.45 4.30 1.65 0.55 3 0.95 3.05 0.95 0.05 0 0.30 -3.20 0.55 -7.10 0.65 -10.05 0.55 -22.15 -0.15 -25.40 -0.35 -1.50 -0.75 -3.40 -0.90 -4.25 -0.20 -0.80 -1.45 -3.85 -2.85 -6.70 -2.15 -4.50 -3.10 -5.80 -6.60 -9.30 -2.55 -2.55 -5.15 -4.60 -7.10 -5.60 -3.80 -1.90 -11.70 -3.95 -12.20 -3.15 -0.20 0.30 -1.20 0.50 -2.30 0.45 -1.20 -0.05 -2.75 0.30 -3.95 0.90 -3.85 2 -9.25 8.85 -11 13.90 -0.45 1.40 -1.10 3.20 -1.50 4 -0.80 1.85 -1.45 3.80 -2.25 6.75 -2.10 7.55 -3.45 9.15 -8.15 9.75 -3.85 0.50 -4.15 0.45 -6.50 -1.05 -3.95 -2.60 -4.80 -6.35 -2.80 -12.95 1.35 -4.45 2.90 -9.20 3.40 -10.50 1.90 -4.75 2.60 -6.20 4.15 -8.70 0.80 -1.25 1.40 -2.45 1.40 -2.70 0 -0.45 -1.15 -0.35 -6.50 0.40 -2.55 0.35 -7.65 2.70 -9.50 4.40 -2.05 1.80 -4.25 4.90 -5.60 7.85 -2.90 6.20 -3.40 7.55 -3.40 8.75 0 0.70 -0.35 2 -0.80 2.90 -0.45 0.85 -1.25 3.25 -1.75 5.30 -1.10 4.45 -2.40 6 -6.15 7.25 -4.25 1.45 -7.95 0.40 -10.20 -2.95 -1.80 -2.60 -2.25 -4.95 -1.60 -7.95 1 -4.30 3.50 -11.25 6 -16.80 1.35 -2.90 2.35 -5.30 2.30 -5.40 -0.10 -0.05 -1.25 0.40 -2.65 1.05 -8.30 3.85 -18.55 12.40 -23.40 19.65 -1.10 1.60 -2.20 3.20 -2.50 3.50 -0.60 0.65 -4.70 8.85 -6.25 12.30 -0.55 1.30 -1 2.95 -1 3.65 0 0.65 -0.45 2.40 -0.95 3.85 -0.55 1.45 -1.10 4.05 -1.30 5.80 l-0.30 3.10 12.80 0 c11.60 0 12.95 0.10 14.65 0.95 3.60 1.85 5.10 4.45 5.10 8.85 0 4.35 -1.30 6.75 -4.45 8.30 -2.15 1.10 -3.05 1.15 -16.05 1.40 l-13.70 0.25 -0.40 1.75 c-0.20 0.95 -0.50 3.35 -0.60 5.25 -0.10 1.95 -0.35 4.95 -0.55 6.75 l-0.35 3.25 13.65 0 c15.35 0 15.60 0.05 18.30 3.60 1.30 1.65 1.40 2.20 1.35 5.90 -0.05 5.05 -1.20 7.10 -4.95 8.85 -2.40 1.10 -3.05 1.15 -16.20 1.25 -7.55 0.10 -13.80 0.25 -13.90 0.35 -0.10 0.10 -0.30 1.95 -0.40 4.05 -0.15 2.15 -0.40 4.35 -0.55 4.95 -0.20 0.60 -0.40 2.45 -0.40 4.20 l-0.05 3.10 13.30 0 c14.40 0 15.60 0.20 18.15 2.75 2.30 2.30 2.70 3.65 2.25 7.65 -0.45 4.05 -1.10 5.40 -3.60 7.30 l-1.70 1.30 -14.50 0 c-17.05 0 -16.35 -0.25 -16.20 5.20 0.05 1.75 -0.25 4.60 -0.65 6.35 -0.40 1.70 -0.60 3.75 -0.45 4.50 l0.30 1.45 13.20 0 c15.95 0 16.85 0.25 19.55 5.25 1.05 1.95 1.05 7 -0.05 9.05 -1.05 2.05 -4 4.25 -6.40 4.75 -1.10 0.25 -7.65 0.50 -14.60 0.55 -7.40 0 -12.85 0.25 -13.25 0.55 -0.40 0.30 -0.50 1.05 -0.35 2.05 0.20 0.85 -0.15 3.75 -0.70 6.45 -0.55 2.65 -0.90 5.55 -0.70 6.35 l0.30 1.50 13.05 0 c13.05 0 13.10 0 15.65 1.30 3.75 1.85 4.80 3.85 4.85 9 0.05 3.65 -0.05 4.20 -1.35 5.85 -2.80 3.70 -3.55 3.85 -19.05 3.85 -11.45 0 -13.85 0.10 -14.45 0.75 -0.50 0.45 -0.90 2.30 -1.10 5.10 -0.15 2.45 -0.55 5.60 -0.80 7.10 -0.25 1.50 -0.45 3.05 -0.45 3.40 0 0.50 2.65 0.65 13.45 0.65 15.20 0 15.80 0.10 18.70 3.55 2 2.30 2.65 4.80 2.15 8.20 -0.40 2.65 -3.55 6.45 -5.95 7.15 -0.85 0.25 -7.45 0.50 -14.60 0.55 -7.15 0.05 -13.45 0.20 -14 0.40 -1.40 0.40 -1.75 1.10 -1.75 3.65 0 1.25 -0.35 4.40 -0.80 7 -1 5.85 -1 8.15 0.05 14.10 1.35 7.80 2.50 11.55 5.55 17.50 4.15 8.15 11.20 16.10 19 21.30 2.70 1.80 7.40 4.55 7.55 4.40 0.10 -0.10 -0.55 -1.60 -1.40 -3.35z"/>
 </g>
 <g fill="#000000">
  <path d="M510.50 905.20 c-0.40 -0.10 -7.85 -0.25 -16.50 -0.40 -19.80 -0.30 -34.85 -1.35 -50.25 -3.55 -5.25 -0.75 -18.55 -3.05 -21.50 -3.75 -13.65 -3.15 -20.35 -5.20 -28.75 -8.85 -8.60 -3.70 -13.40 -7.15 -16.35 -11.80 l-1.30 -2.05 0.05 -14.80 c0 -14.25 0.05 -14.90 1.10 -17.20 2.10 -4.35 7.60 -8.90 15.50 -12.80 2.30 -1.10 4.35 -2 4.60 -2 0.20 0 1.35 -0.45 2.55 -0.95 3.65 -1.65 15.05 -5.25 21.45 -6.75 11.20 -2.65 11.50 -2.70 18.40 -3.85 13.50 -2.35 26.75 -3.85 37.25 -4.30 3.60 -0.15 6.55 -0.35 6.65 -0.40 0.10 -0.10 0.20 -22.15 0.25 -49 0.05 -37.85 -0.10 -48.90 -0.55 -49.20 -0.35 -0.20 -1.65 -0.40 -3 -0.45 -2.20 -0.10 -5.20 -0.60 -9.85 -1.60 -1.10 -0.25 -3.25 -0.70 -4.75 -1.05 -12.80 -2.75 -33 -10.60 -42.75 -16.55 -3.50 -2.15 -9.45 -6.10 -9.75 -6.40 -0.15 -0.15 -1.05 -0.85 -2 -1.50 -6.65 -4.65 -15.20 -13.30 -21.40 -21.75 -1.40 -1.90 -2.75 -3.70 -3 -4 -0.90 -1.15 -5.60 -9.30 -5.60 -9.70 0 -0.25 -0.20 -0.55 -0.40 -0.65 -0.35 -0.15 -4.60 -8.60 -4.60 -9.15 0 -0.15 -0.40 -1.20 -0.95 -2.40 -1.95 -4.35 -3.65 -9.50 -5.60 -16.85 -1.25 -4.75 -2.45 -13.50 -2.80 -20.25 -0.20 -4.10 -0.30 -30.10 -0.15 -57.75 l0.25 -50.25 1.70 -2.55 c3.05 -4.60 6.85 -6.30 14.15 -6.40 l4.40 -0.05 0.05 -1.50 c0 -0.80 0.10 -1.95 0.20 -2.50 0.15 -0.55 0.35 -2.80 0.50 -5 0.15 -2.20 0.50 -6.35 0.75 -9.25 0.30 -2.90 0.60 -6.50 0.75 -8 0.10 -1.50 0.30 -3.85 0.45 -5.25 0.45 -4.55 0.85 -8.95 1.10 -12.25 0.10 -1.80 0.35 -4.50 0.50 -6 0.35 -3.60 1.10 -12.40 1.45 -16.50 0.60 -7.40 1.30 -15.50 1.75 -19.50 0.25 -2.35 0.60 -5.95 0.75 -8 0.15 -2.05 0.35 -4.65 0.50 -5.75 0.10 -1.10 0.30 -3.70 0.45 -5.75 0.40 -4.85 1.10 -10.55 1.75 -14 0.50 -2.55 0.75 -3.70 2 -8.10 1.60 -5.70 6.35 -16.05 9.80 -21.25 0.70 -1.05 1.55 -2.30 1.90 -2.85 6.35 -9.60 18.75 -21.25 28.50 -26.75 1 -0.55 2.60 -1.45 3.50 -1.95 6.10 -3.45 14.35 -6.25 25.35 -8.60 4.75 -1 16.90 -1.25 45.80 -0.95 22.70 0.25 28.70 0.45 31.95 1.10 6.50 1.30 10.45 2.35 14.50 3.85 1.65 0.60 3.45 1.20 4 1.35 2.25 0.65 12.45 6.25 16.85 9.20 5.50 3.75 16.35 14.35 20.70 20.20 7.50 10.05 13.60 23 15.60 33.25 0.30 1.50 0.80 4.10 1.15 5.75 0.65 3.05 0.80 27.20 0.20 29.75 -0.15 0.70 -0.50 4.40 -0.75 8.25 -0.20 3.85 -0.55 7.55 -0.70 8.25 -0.15 0.70 -0.40 3.30 -0.55 5.75 -0.45 7 -1.20 15.80 -1.45 18 -0.15 1.10 -0.35 4.05 -0.55 6.50 -0.25 4.05 -0.60 7.60 -1.60 16.90 -0.25 2.55 -0.45 2.90 -1.60 3.20 -2 0.50 -7.05 3.15 -9.30 4.85 -5.85 4.50 -8.40 8.05 -11.30 15.55 l-1.20 3 -0.25 55.50 c-0.25 41.90 -0.45 56.15 -0.95 58.25 -0.35 1.50 -0.85 4 -1.15 5.50 -2.75 14.05 -9.25 27.90 -17.20 36.75 -12.20 13.55 -21.20 19.45 -36.95 24.25 -0.80 0.25 -3.85 0.85 -6.75 1.35 -4.80 0.80 -8.85 0.90 -45.60 0.90 -22.25 0 -40.40 0.15 -40.40 0.35 0 0.45 9.15 5.10 13.80 6.90 5.20 2.10 10.30 3.75 13.70 4.50 1.50 0.30 3.55 0.80 4.50 1 5.25 1.30 11.50 1.60 31.25 1.65 14.50 0.05 22.10 -0.15 24.50 -0.55 5.40 -0.95 8.90 -1.65 10.25 -2.10 0.70 -0.20 2.25 -0.65 3.50 -1 1.25 -0.35 2.70 -0.80 3.25 -1 0.55 -0.20 1.80 -0.70 2.75 -1 4.70 -1.65 14.40 -7 19.10 -10.45 8.55 -6.40 18.45 -17.05 22.75 -24.45 0.75 -1.30 1.50 -2.45 1.65 -2.60 0.60 -0.45 5.25 -9.60 7.15 -14 2 -4.70 4.65 -12.50 5.40 -16 0.30 -1.25 0.75 -3.25 1 -4.50 2 -8.75 2.05 -10.85 2.25 -60.75 0.10 -26.65 0.25 -49.75 0.40 -51.25 0.35 -3.55 1.25 -5.40 4.05 -7.90 2.65 -2.45 4.45 -3.25 9.20 -4.15 8.50 -1.50 15.40 2.75 17.50 10.80 0.65 2.45 0.70 103.15 0.05 107.05 -0.25 1.40 -0.50 3.80 -0.55 5.25 -0.05 1.50 -0.30 3.25 -0.50 3.95 -0.20 0.70 -0.60 2.95 -0.95 5 -0.35 2.05 -1.05 5.35 -1.60 7.25 -1.45 5.10 -3.85 12.85 -4.35 14 -0.25 0.55 -1.05 2.45 -1.80 4.25 -2.05 4.90 -4.70 10.30 -7.35 14.90 -2.50 4.40 -8.70 13.65 -10.25 15.35 -0.50 0.55 -1.90 2.25 -3.15 3.75 -3.20 3.90 -11.20 11.85 -15.30 15.05 -13.05 10.40 -29.35 18.30 -44.95 21.85 -7.30 1.65 -9.75 2.10 -11.30 2.10 l-1.45 0 0 48.25 0 48.20 1.65 0.25 c0.85 0.15 4.30 0.40 7.60 0.55 9 0.40 24 2.05 33.75 3.70 36.65 6.15 60.75 15.90 65.95 26.75 1 2 1.05 3 1.05 16.95 0 9.30 -0.20 14.90 -0.50 15.10 -0.25 0.15 -0.50 0.75 -0.50 1.30 0 0.50 -1.40 2.35 -3.10 4.10 -5.45 5.50 -13.25 9.25 -29.65 14.35 -3.10 0.95 -8 2.10 -13.75 3.25 -2.65 0.55 -6.35 1.35 -8.40 1.80 -1.15 0.25 -2.90 0.45 -3.80 0.45 -0.95 0 -2.25 0.20 -2.90 0.45 -0.65 0.20 -2.60 0.55 -4.40 0.75 -1.80 0.20 -5.15 0.65 -7.50 1 -2.35 0.35 -4.30 0.45 -4.40 0.20 -0.25 -0.50 -1.60 -0.55 -1.60 0 0 0.50 -9.30 1.45 -18 1.90 -3.15 0.15 -6.25 0.40 -6.85 0.55 -0.70 0.15 -1.15 0.05 -1.15 -0.30 0 -0.65 -1.35 -0.75 -1.60 -0.10 -0.15 0.40 -25.70 1.10 -27.40 0.75z m30.50 -2.50 c11.30 -0.40 17.75 -0.85 21.25 -1.50 2.20 -0.35 4.85 -0.60 5.90 -0.45 1.05 0.15 2.30 0.05 2.85 -0.25 0.50 -0.25 2.35 -0.60 4.15 -0.75 1.75 -0.10 3.80 -0.45 4.55 -0.75 0.70 -0.25 1.95 -0.35 2.75 -0.20 0.80 0.15 1.95 0.05 2.55 -0.30 1.10 -0.60 5.45 -1.45 9.10 -1.75 1 -0.10 2.30 -0.45 2.85 -0.70 0.55 -0.30 1.90 -0.55 3 -0.55 1.10 0 2.15 -0.25 2.30 -0.55 0.20 -0.30 0.65 -0.40 1.05 -0.25 0.35 0.15 1.30 -0.05 2.05 -0.45 0.75 -0.40 1.70 -0.75 2.10 -0.75 0.40 0 1.40 -0.20 2.25 -0.50 0.85 -0.25 3.40 -1.05 5.65 -1.70 2.20 -0.70 5.45 -1.85 7.20 -2.55 1.70 -0.70 3.65 -1.25 4.25 -1.25 0.60 0 1.20 -0.20 1.30 -0.40 0.15 -0.50 5.75 -3.60 6.40 -3.60 0.55 0 2.55 -1.60 5.65 -4.60 1.40 -1.35 2.65 -2.40 2.85 -2.40 1.65 0 2.05 -29.05 0.45 -33.15 -0.40 -1.05 -1.95 -3.15 -3.40 -4.65 -3.80 -3.85 -7.20 -6 -15.40 -9.50 -0.90 -0.40 -2.40 -1 -3.25 -1.40 -3.50 -1.55 -14.90 -5.05 -20.40 -6.30 -0.95 -0.20 -4.35 -1 -7.55 -1.70 -3.20 -0.75 -6 -1.30 -6.25 -1.25 -0.25 0.10 -1.45 -0.15 -2.65 -0.50 -1.15 -0.35 -2.25 -0.50 -2.40 -0.35 -0.15 0.15 -0.70 0.05 -1.15 -0.20 -0.50 -0.25 -1.95 -0.60 -3.20 -0.70 -1.30 -0.15 -4.10 -0.50 -6.20 -0.80 -12.40 -1.75 -19.50 -2.60 -19.95 -2.35 -0.20 0.10 -2.85 -0.10 -5.90 -0.45 -3 -0.35 -6.55 -0.65 -7.85 -0.70 -4.25 0 -3.90 4.50 -3.80 -49.90 l0.15 -48.35 1.25 -0.60 c1.35 -0.60 6.05 -1.55 10.25 -1.95 1.35 -0.15 2.65 -0.50 2.80 -0.80 0.20 -0.30 0.75 -0.40 1.20 -0.20 0.50 0.15 1.15 0.10 1.45 -0.15 0.30 -0.25 2.90 -1.20 5.80 -2.10 2.90 -0.90 6.45 -2.15 7.90 -2.80 1.45 -0.65 3.10 -1.15 3.65 -1.15 0.55 0 0.85 -0.20 0.70 -0.50 -0.20 -0.30 0.25 -0.50 0.95 -0.50 0.70 0 1.30 -0.20 1.30 -0.50 0 -0.25 0.45 -0.50 1 -0.50 0.55 0 1 -0.20 1 -0.50 0 -0.25 0.45 -0.50 0.95 -0.50 0.55 0 1.05 -0.20 1.15 -0.45 0.25 -0.65 8.40 -5.55 9.20 -5.55 0.45 0 0.65 -0.20 0.50 -0.45 -0.15 -0.25 0.40 -0.70 1.25 -1.05 0.85 -0.35 2.15 -1.30 2.95 -2.10 0.80 -0.75 1.80 -1.40 2.20 -1.40 0.45 0 0.80 -0.35 0.80 -0.75 0 -0.35 0.40 -0.90 0.85 -1.15 1.15 -0.70 14.65 -14.15 14.65 -14.65 0 -0.25 0.35 -0.45 0.75 -0.45 0.45 0 0.75 -0.30 0.65 -0.65 -0.15 -0.75 2.80 -4.35 3.60 -4.35 0.25 0 0.50 -0.35 0.50 -0.80 0 -0.90 2.95 -5.20 3.60 -5.20 0.20 0 0.40 -0.45 0.40 -1 0 -0.55 0.45 -1.25 1 -1.60 0.55 -0.35 1 -0.95 1 -1.35 0 -0.95 2.95 -6.05 3.55 -6.05 0.25 0 0.45 -0.55 0.45 -1.25 0 -0.70 0.45 -1.70 1 -2.25 0.55 -0.55 1 -1.35 1 -1.75 0 -1 1.10 -3.25 1.60 -3.25 0.20 0 0.40 -0.70 0.40 -1.50 0 -0.95 0.30 -1.65 0.80 -1.85 0.40 -0.15 0.65 -0.60 0.45 -1.05 -0.15 -0.40 -0.05 -1 0.15 -1.30 0.40 -0.45 2.15 -5.95 5.15 -15.60 0.25 -0.85 0.45 -2 0.45 -2.60 0 -0.60 0.20 -1.10 0.45 -1.10 0.25 0 0.55 -1.20 0.75 -2.60 0.15 -1.45 0.50 -4.10 0.80 -5.90 0.25 -1.80 0.70 -4.95 0.95 -7 0.30 -2.25 0.45 -24.70 0.40 -56.80 -0.10 -44.10 -0.20 -53.20 -0.80 -53.85 -0.35 -0.50 -0.50 -0.85 -0.35 -0.85 0.20 0 -0.60 -1 -1.75 -2.20 -3.10 -3.35 -5.80 -4.45 -10.95 -4.45 -5.10 0.05 -8.85 1.45 -11.40 4.35 -3.20 3.65 -3 0.85 -3.10 50.90 -0.05 45.80 -0.35 55.80 -2.05 65.15 -0.30 1.65 -0.60 3.55 -0.65 4.25 -0.05 0.70 -0.40 1.90 -0.70 2.70 -0.35 0.80 -0.50 1.55 -0.40 1.70 0.15 0.10 -0.05 0.85 -0.45 1.65 -0.40 0.75 -0.60 1.75 -0.45 2.15 0.15 0.45 0.10 0.80 -0.20 0.80 -0.30 0 -0.70 0.70 -0.85 1.60 -0.20 0.90 -0.55 1.95 -0.75 2.40 -0.25 0.40 -0.95 2.10 -1.55 3.75 -1.50 3.95 -4.80 10.75 -7.50 15.35 -10.75 18.15 -26.60 32.25 -43.70 38.80 -13.90 5.30 -23.05 6.60 -47.25 6.60 -13.95 0 -23.10 -0.60 -29.50 -1.90 -5.05 -1.05 -9.80 -2.20 -10.60 -2.65 -0.50 -0.25 -1.35 -0.45 -1.85 -0.45 -0.55 0 -1.15 -0.20 -1.30 -0.50 -0.15 -0.25 -0.70 -0.50 -1.20 -0.50 -0.45 0 -1.80 -0.45 -2.95 -1 -1.10 -0.55 -2.40 -1 -2.85 -1 -0.40 0 -0.75 -0.20 -0.75 -0.50 0 -0.25 -0.35 -0.50 -0.80 -0.50 -0.90 0 -8.95 -4.05 -10.45 -5.25 -0.70 -0.60 -0.80 -0.90 -0.35 -1.05 0.85 -0.40 0.75 -1.20 -0.20 -1.20 -0.70 0 -0.70 -0.15 -0.20 -0.75 0.60 -0.70 5.45 -0.80 41.95 -0.75 42.65 0.05 43.20 0.05 51.05 -1.95 5.90 -1.45 15.65 -5.55 18.35 -7.65 0.35 -0.25 0.85 -0.35 1.15 -0.15 0.25 0.15 0.50 -0.05 0.50 -0.45 0 -0.90 1.80 -2 2.50 -1.55 0.30 0.20 0.65 -0.10 0.85 -0.55 0.45 -1.15 3.20 -3.65 4.05 -3.70 0.75 0 2.10 -1.20 2.10 -1.85 0.05 -0.20 1.35 -1.50 2.95 -2.90 1.65 -1.35 3.10 -2.95 3.25 -3.50 0.35 -1.10 3.60 -4.75 4.25 -4.75 0.25 0 0.55 -0.65 0.75 -1.50 0.15 -0.80 0.60 -1.50 1 -1.50 0.35 0 0.80 -0.65 1 -1.50 0.15 -0.90 0.60 -1.50 1.05 -1.50 0.40 0 0.75 -0.45 0.75 -0.95 0 -1.05 1.90 -4.65 2.60 -4.95 0.20 -0.10 0.40 -0.60 0.40 -1.15 0 -0.55 0.20 -1.35 0.45 -1.85 0.40 -0.80 1 -2.20 2 -4.70 0.25 -0.65 0.70 -2.15 1.05 -3.40 0.35 -1.25 0.80 -2.75 1.05 -3.40 0.25 -0.65 0.45 -1.60 0.45 -2.10 0 -0.55 0.20 -1 0.40 -1 0.20 0 0.45 -0.95 0.45 -2.10 0.05 -1.15 0.35 -3.10 0.60 -4.35 1.50 -6.85 1.65 -11.75 1.60 -61.95 0 -35.30 0.15 -52 0.55 -53.55 1.65 -7 5.60 -13.95 10.10 -17.75 3.30 -2.80 7.25 -5.30 8.40 -5.30 0.50 0 1.30 -0.35 1.75 -0.80 0.50 -0.40 1.45 -1.15 2.05 -1.60 1.05 -0.80 1.20 -1.35 1.40 -5.10 0.10 -2.30 0.35 -4.90 0.50 -5.75 0.20 -0.80 0.40 -3.05 0.45 -5 0.10 -1.90 0.40 -6.40 0.70 -10 0.85 -9.55 1.45 -17.15 2 -24.60 0.25 -3.60 0.65 -6.85 0.85 -7.25 0.25 -0.35 0.50 -2.55 0.55 -4.90 0.05 -2.35 0.25 -8.05 0.50 -12.75 0.20 -4.65 0.25 -10.20 0 -12.25 -0.20 -2.05 -0.45 -4.90 -0.55 -6.30 -0.10 -1.40 -0.45 -3 -0.70 -3.55 -0.30 -0.55 -0.45 -1.45 -0.25 -2.05 0.15 -0.55 -0.10 -1.55 -0.55 -2.20 -0.45 -0.60 -0.80 -1.55 -0.80 -2.10 0 -0.90 -1.45 -5.50 -2.50 -8.05 -4.10 -9.95 -8.45 -17.25 -14.55 -24.55 -13.35 -15.90 -29.15 -25.50 -49.20 -29.90 -1.65 -0.35 -3.35 -0.65 -3.75 -0.70 -0.40 0 -2 -0.25 -3.60 -0.55 -3.90 -0.80 -70.50 -0.55 -70.75 0.25 -0.10 0.30 -0.75 0.45 -1.45 0.30 -2.30 -0.40 -11.75 2.20 -19.45 5.45 -1.90 0.80 -3.65 1.45 -3.80 1.45 -0.20 0 -1.90 0.90 -3.75 2.05 -1.90 1.15 -4.10 2.40 -4.85 2.90 -6.85 3.95 -19 15.25 -23.45 21.85 -1.30 1.90 -3.05 4.45 -3.90 5.65 -0.85 1.25 -2.80 4.85 -4.35 8 -3.25 6.65 -3.20 6.50 -4.90 11.80 -1.25 3.70 -1.65 5.45 -2.80 12 -0.80 4.50 -1.50 11.90 -1.65 17 -0.10 2.75 -0.45 6.05 -0.75 7.40 -0.30 1.30 -0.40 3.55 -0.25 5.10 0.25 1.90 0.15 2.95 -0.30 3.50 -0.45 0.50 -0.70 2.60 -0.75 5.90 -0.10 2.80 -0.40 6.35 -0.70 7.85 -0.35 1.50 -0.45 3.80 -0.30 5.10 0.20 1.35 0.10 2.75 -0.20 3.35 -0.30 0.55 -0.65 3.05 -0.80 5.55 -0.10 2.50 -0.45 6.35 -0.75 8.55 -0.30 2.25 -0.40 4.70 -0.25 5.45 0.15 0.80 0.05 2.35 -0.25 3.45 -0.30 1.15 -0.65 4.30 -0.75 7.05 -0.10 2.70 -0.30 5.20 -0.50 5.50 -0.20 0.35 -0.45 2.75 -0.50 5.40 -0.05 2.70 -0.40 6.30 -0.70 8.10 -0.30 1.80 -0.70 5.20 -0.85 7.65 -0.20 2.70 -0.55 4.65 -1 5.05 -0.50 0.50 -2.15 0.70 -5.70 0.75 -7.05 0.10 -10.60 1.90 -13.05 6.60 -1 2.05 -1 2.35 -0.90 57.10 0.05 30.30 0.30 56.25 0.50 57.60 0.25 1.40 0.55 3.70 0.70 5.15 0.10 1.50 0.40 2.95 0.70 3.25 0.25 0.35 0.45 1.45 0.45 2.55 0 1.05 0.30 2.10 0.60 2.30 0.35 0.25 0.50 0.75 0.35 1.15 -0.30 0.75 0.15 2.60 1.30 5.35 0.25 0.70 0.55 1.60 0.65 2 1.10 6.70 12.75 29.65 17.40 34.30 0.45 0.45 1.15 1.40 1.50 2.10 0.40 0.75 1.20 1.70 1.75 2.10 0.60 0.40 1.05 0.95 1.05 1.25 0 0.55 10.75 11.25 14 13.95 0.95 0.80 2.25 1.65 2.90 1.95 0.60 0.30 1.10 0.70 1.10 0.90 0 0.40 12.70 8.45 13.30 8.45 0.15 0 0.90 0.40 1.60 0.90 0.75 0.50 2.15 1.25 3.10 1.60 0.95 0.40 1.85 0.85 2 1 0.20 0.25 3.50 1.75 8.25 3.75 0.85 0.35 2.85 1.15 4.50 1.75 1.65 0.60 3.70 1.35 4.50 1.65 0.85 0.35 1.75 0.55 2.10 0.45 0.30 -0.05 0.70 0.10 0.90 0.40 0.15 0.25 0.85 0.50 1.55 0.50 0.65 0 1.20 0.20 1.20 0.50 0 0.25 0.15 0.45 0.40 0.40 0.45 -0.15 5.45 1.05 7.15 1.70 0.75 0.25 1.85 0.55 2.50 0.70 1.25 0.20 2.75 0.50 9.95 1.95 2.35 0.50 5.10 0.85 6.10 0.85 1.35 -0.05 2 0.20 2.40 0.85 0.70 1.40 0.75 98.40 0.05 99.25 -0.35 0.40 -2.45 0.80 -5.45 1 -9.50 0.70 -11.40 0.90 -17.35 1.65 -3.30 0.40 -7.90 0.95 -10.25 1.15 -2.35 0.20 -5.95 0.75 -8 1.15 -2.05 0.40 -4.65 0.90 -5.75 1.10 -4.35 0.70 -24.50 5.45 -26.50 6.20 -0.55 0.25 -1.90 0.70 -3 1 -1.75 0.55 -5.40 1.85 -8.50 3.05 -5.05 1.90 -13.05 6.05 -13.75 7.05 -0.15 0.20 -0.55 0.45 -0.95 0.55 -1.95 0.45 -6.75 6.30 -7.30 8.90 -0.50 2.25 -0.50 27.80 0 29.65 0.20 0.75 0.55 1.35 0.85 1.35 0.25 0 0.35 0.20 0.15 0.45 -0.30 0.55 4.70 5.55 5.60 5.55 0.35 0 0.65 0.20 0.65 0.40 0 0.25 2.30 1.55 5.10 3 7.10 3.50 16.20 6.80 23.90 8.60 0.95 0.25 3.10 0.75 4.75 1.15 1.65 0.40 4.25 1 5.75 1.30 1.50 0.30 4 0.80 5.50 1.10 1.50 0.35 3.10 0.60 3.50 0.60 0.40 -0.05 1.85 0.25 3.20 0.65 1.35 0.35 2.60 0.60 2.75 0.45 0.20 -0.10 1.30 0.05 2.50 0.30 1.15 0.25 3.25 0.60 4.70 0.70 1.45 0.15 5.30 0.60 8.60 1 3.30 0.40 7.80 0.85 10 1 2.20 0.10 6.60 0.40 9.75 0.65 3.15 0.25 10.45 0.50 16.25 0.55 5.75 0.05 10.60 0.25 10.75 0.40 0.20 0.25 28.30 -0.20 39.50 -0.65z"/>
  <path d="M489.50 878.95 c-2.90 -0.20 -7.05 -0.30 -9.25 -0.20 -2.20 0.05 -5.10 -0.05 -6.50 -0.30 -1.35 -0.25 -5.55 -0.70 -9.25 -1 -12.30 -1 -20.30 -1.90 -25.75 -2.95 -1.65 -0.30 -4.25 -0.75 -5.75 -1 -14.35 -2.35 -27.20 -6.15 -29.85 -8.80 -1.50 -1.45 -1.65 -1.85 -1.65 -4.65 0 -2.65 0.20 -3.20 1.50 -4.75 1.75 -1.95 4.20 -2.95 6.30 -2.60 0.75 0.15 3.20 0.80 5.40 1.50 2.25 0.65 6.20 1.70 8.80 2.30 7.75 1.80 8.15 1.85 10.75 2.50 1.40 0.35 3.30 0.70 4.25 0.80 3.55 0.35 8.40 1.05 8.80 1.35 0.25 0.15 2.15 0.40 4.20 0.55 2.05 0.20 4.50 0.55 5.50 0.80 0.95 0.25 2.55 0.45 3.50 0.45 3.70 -0.05 20.95 0.95 21.40 1.25 0.90 0.55 39.60 0.40 46.40 -0.15 5.45 -0.45 6.85 -0.45 8.25 0.15 4.20 1.75 6.05 6.20 4.15 9.90 -2 3.85 -3.45 4.20 -22.45 4.85 -15.85 0.60 -20.80 0.60 -28.75 0z m35.50 -1.20 c10.65 -0.45 12.35 -0.75 14.10 -2.70 2.25 -2.50 1.75 -6.05 -1.15 -8.20 -1.15 -0.85 -2.05 -0.95 -7.25 -0.85 -3.30 0.05 -6.55 0.15 -7.25 0.25 -8.25 1 -47.40 0.35 -47.85 -0.80 -0.10 -0.25 -0.55 -0.25 -1 0 -0.45 0.20 -2.55 0.25 -4.60 0 -2.05 -0.20 -5.20 -0.50 -7 -0.65 -1.80 -0.15 -5.05 -0.50 -7.25 -0.80 -2.20 -0.25 -5.90 -0.70 -8.25 -1 -2.35 -0.25 -4.70 -0.55 -5.25 -0.70 -0.55 -0.10 -2.45 -0.50 -4.25 -0.80 -10 -1.80 -17.40 -3.55 -24.60 -5.85 -4.60 -1.45 -6.80 -1.25 -8.65 0.90 -2.35 2.85 -2 6.75 0.85 8.55 3.30 2.10 20.65 6.45 33.40 8.35 1.80 0.30 4.15 0.65 5.25 0.80 6.70 1 8.95 1.30 12.75 1.55 2.35 0.15 5.30 0.45 6.55 0.65 1.30 0.20 4.05 0.45 6.15 0.50 2.10 0.05 4.35 0.25 4.95 0.35 0.60 0.15 5.50 0.40 10.85 0.55 5.35 0.15 9.80 0.30 9.85 0.35 0.20 0.15 22.70 -0.15 29.65 -0.45z"/>
  <path d="M499.75 824.25 c-2.60 -0.95 -4.10 -2.75 -4.50 -5.35 -0.15 -1.20 -0.25 -14.40 -0.15 -29.40 l0.15 -27.30 1.15 -1.45 c1.80 -2.25 3.55 -3.10 6.40 -3 3 0.05 4.85 1.10 6 3.30 0.70 1.40 0.80 4.85 0.75 30.30 -0.05 27.85 -0.05 28.80 -1.05 30.35 -1.65 2.70 -5.35 3.80 -8.75 2.55z m5.90 -0.85 c3.45 -1.80 3.35 -1 3.35 -31.55 0 -24.25 -0.10 -27.90 -0.80 -29.30 -1.40 -2.80 -5.10 -3.90 -8.05 -2.40 -3.25 1.70 -3.15 0.90 -3.15 31.60 0 27.85 0.05 28.90 1.70 30.50 1.75 1.75 4.90 2.25 6.95 1.15z"/>
  <path d="M460 644.50 c-11.90 -2.05 -19.25 -10.65 -21 -24.65 -1.35 -11.05 -2.50 -13.45 -7.15 -14.85 -1.45 -0.40 -2.35 -0.40 -3.75 0.05 -3.15 1.05 -4 1.85 -4.90 4.85 -0.70 2.45 -0.75 3.45 -0.25 6.90 0.30 2.20 0.55 4.65 0.55 5.50 0 0.80 0.35 2.10 0.75 2.90 0.45 0.80 0.70 1.85 0.65 2.25 -0.05 0.45 0.05 1.10 0.30 1.45 0.20 0.35 0.45 1.35 0.60 2.20 0.10 0.85 0.35 1.70 0.60 1.85 0.25 0.15 0.45 0.65 0.45 1.05 0 0.45 0.80 2.60 1.75 4.85 1.50 3.45 1.70 4.25 1.15 5 -0.60 0.80 -0.75 0.80 -2.65 0.05 -3.65 -1.45 -10.65 -6.55 -15.40 -11.25 -4.50 -4.45 -10.20 -12.20 -10.20 -13.85 0 -0.45 -0.20 -0.80 -0.45 -0.80 -0.45 0 -3.10 -6.15 -3.25 -7.50 -0.05 -0.40 -0.30 -1.20 -0.65 -1.75 -0.50 -0.90 -1 -3.25 -1.40 -7.05 -0.10 -0.80 -0.45 -3.10 -0.75 -5.15 -0.40 -2.70 -0.45 -4.55 -0.05 -6.80 0.30 -1.70 0.55 -4.35 0.55 -5.90 0 -1.55 0.35 -3.75 0.80 -4.85 0.45 -1.10 0.70 -2.30 0.55 -2.70 -0.15 -0.40 0 -1.05 0.30 -1.45 0.50 -0.65 2.90 -0.80 15.75 -1 8.35 -0.15 15.30 -0.40 15.45 -0.55 0.20 -0.15 0.10 -0.30 -0.15 -0.30 -0.20 0 0.10 -0.35 0.70 -0.80 2.25 -1.55 4.10 -4.70 4.10 -6.95 0 -1.30 -0.30 -2.40 -0.75 -2.75 -0.40 -0.35 -0.75 -0.90 -0.75 -1.20 0 -1 -2.70 -3.30 -4.55 -3.80 -0.90 -0.30 -7.45 -0.50 -14.45 -0.50 -9.30 0 -12.95 -0.15 -13.40 -0.60 -0.70 -0.70 -0.80 -7.10 -0.15 -9.20 0.25 -0.80 0.65 -2.95 0.80 -4.85 0.20 -1.90 0.65 -3.70 1.10 -4.10 0.60 -0.65 2.95 -0.75 14.45 -0.75 12.50 0 13.90 -0.10 15.60 -0.95 3.60 -1.85 4 -2.50 4.60 -7.05 0.35 -2.45 0.25 -3 -1 -5 -2.45 -4.15 -2.85 -4.25 -18.25 -4.40 -8.25 -0.15 -13.75 -0.40 -14.10 -0.70 -0.75 -0.60 -0.80 -4.30 -0.10 -7.35 0.25 -1.15 0.55 -3.95 0.70 -6.15 0.10 -2.20 0.45 -4.30 0.75 -4.65 0.45 -0.55 3.55 -0.75 14.40 -0.90 7.60 -0.10 14.30 -0.30 14.80 -0.40 1.35 -0.30 4.20 -3.30 5.15 -5.45 1.10 -2.60 0.55 -6.25 -1.20 -8.15 -2.70 -2.80 -3 -2.85 -17 -2.85 -14.70 0 -15.15 -0.10 -15.15 -3.40 0 -1 0.25 -2.85 0.55 -4.10 0.30 -1.25 0.60 -4.10 0.65 -6.35 0.15 -6.50 -0.80 -6.15 15.95 -6.15 13.35 0 14.05 -0.05 16.35 -1.10 2.20 -1 2.50 -1.35 3.30 -3.80 1.65 -5.40 -0.45 -10.05 -5.10 -11.10 -1.05 -0.25 -7.40 -0.50 -14.05 -0.50 -8.35 0 -12.50 -0.20 -13.40 -0.60 -1.30 -0.60 -1.35 -0.70 -1 -3.90 0.20 -1.80 0.60 -3.65 0.85 -4.20 0.30 -0.50 0.35 -1.85 0.20 -2.95 -0.30 -1.90 0.55 -7.30 1.15 -7.40 0.15 0 3.80 -0.10 8.05 -0.20 18.80 -0.40 21 -0.45 21 -0.75 0 -0.15 0.65 -0.50 1.40 -0.80 0.80 -0.30 2.05 -1.35 2.80 -2.35 1.15 -1.45 1.40 -2.40 1.45 -4.70 0.10 -3.60 -0.80 -5.65 -3.10 -7.20 -1.70 -1.20 -1.90 -1.20 -15.50 -1.30 -15.75 -0.15 -15.70 -0.15 -14.55 -3.60 0.35 -1.15 0.50 -2.90 0.35 -4.15 -0.15 -1.15 0.05 -3.80 0.40 -5.85 0.40 -2 0.60 -3.90 0.45 -4.15 -0.15 -0.25 0 -0.75 0.30 -1.15 0.50 -0.60 2.85 -0.75 13.50 -0.75 16.25 0 17.65 -0.40 19.95 -5.30 1.25 -2.60 1.30 -4 0.30 -6.25 -0.95 -2.20 -1.65 -3.05 -3.50 -4.25 -1.30 -0.85 -2.70 -0.95 -14.35 -1.20 -11.25 -0.20 -12.95 -0.35 -13.70 -1.10 -0.75 -0.75 -0.80 -1.15 -0.30 -2.80 0.35 -1.10 0.60 -2.70 0.60 -3.55 0 -0.85 0.35 -2.35 0.75 -3.35 0.40 -0.95 0.60 -2.05 0.45 -2.45 -0.20 -0.40 -0.05 -0.75 0.25 -0.75 0.30 0 0.55 -0.55 0.55 -1.25 0 -1.85 3.70 -10.25 4.50 -10.25 0.25 0 0.50 -0.55 0.50 -1.25 0 -0.70 0.20 -1.25 0.45 -1.25 0.25 0 0.60 -0.55 0.75 -1.25 0.20 -0.70 0.60 -1.25 1 -1.25 0.35 0 0.80 -0.65 0.95 -1.45 0.15 -0.80 1.10 -2.25 2.10 -3.30 0.95 -1.05 1.75 -2.05 1.75 -2.30 0 -0.65 7.55 -8.45 8.20 -8.45 0.35 0 1.05 -0.45 1.55 -1 1.50 -1.65 9.15 -6.50 10.25 -6.50 0.60 0 0.90 -0.20 0.75 -0.50 -0.15 -0.30 0.25 -0.50 0.95 -0.50 0.65 0 1.30 -0.25 1.40 -0.60 0.15 -0.35 0.70 -0.45 1.55 -0.20 1 0.25 1.35 0.65 1.35 1.55 0 0.65 -0.20 1.30 -0.45 1.45 -0.25 0.15 -0.60 0.85 -0.75 1.55 -0.20 0.70 -1.10 2.85 -2.05 4.85 -0.95 1.95 -1.60 3.70 -1.50 3.95 0.15 0.20 0.05 0.50 -0.25 0.70 -0.30 0.20 -0.40 0.55 -0.25 0.80 0.20 0.25 0.10 0.45 -0.15 0.45 -0.45 0 -1.30 2.80 -1.15 3.65 0.05 0.20 -0.25 0.90 -0.70 1.50 -0.50 0.70 -0.75 2.25 -0.75 4.65 0 3.30 0.10 3.65 1.70 5.50 2.25 2.60 5.10 3.35 8.25 2.15 2.90 -1.10 4.30 -2.75 5.25 -6.30 0.45 -1.60 1.25 -4.30 1.80 -5.95 0.55 -1.70 1 -3.35 1 -3.65 0 -0.55 0.75 -2.35 3.45 -8.15 0.70 -1.60 1.60 -2.85 1.95 -2.90 0.35 0 0.60 -0.30 0.50 -0.65 -0.35 -1.45 4.20 -5.50 8.10 -7.25 3.50 -1.55 6.50 -2.15 9.75 -2 3.85 0.20 3.95 0.65 1.25 6.30 -2.85 5.90 -2.70 5.60 -4.95 12.40 -2.20 6.80 -2.85 10.80 -2.10 12.80 0.80 2.15 3.50 4.40 5.25 4.45 6.10 0.20 8.10 -1.60 10.30 -9.55 1.35 -4.70 2.70 -8.50 3.10 -8.50 0.20 0 0.40 -0.45 0.40 -1.05 0 -2 3.15 -7.30 6.40 -10.80 4.60 -4.85 6.70 -5.90 12.10 -5.90 4.60 0 8.20 0.90 13.05 3.30 3.20 1.60 10.05 7.75 11.50 10.40 0.55 1 1.65 2.95 2.40 4.35 0.75 1.40 1.80 3.65 2.30 5 0.50 1.35 1.15 2.70 1.40 3.05 0.25 0.35 0.30 1.05 0.10 1.65 -0.15 0.55 -0.15 1 0.10 1 0.25 0 0.45 1.40 0.55 3.10 0.05 1.75 0.25 3.95 0.40 4.90 0.40 2.75 -0.70 24.90 -1.35 26.05 -0.60 1.15 -2.25 1.15 -6.05 0 -5.95 -1.75 -7.45 -2 -17.65 -3.30 -4.40 -0.55 -11.45 -0.75 -26.70 -0.75 -19.90 0 -20.75 0.05 -22.30 1 -1.40 0.90 -3.70 3.50 -3.05 3.50 0.15 0 0 0.75 -0.25 1.65 -0.75 2.50 -0.05 6.15 1.50 7.80 2.75 3 2.35 2.95 26.80 3.25 21.40 0.25 29.85 0.65 31 1.40 0.30 0.20 1.45 0.45 2.50 0.60 1.10 0.15 3 0.55 4.25 0.80 1.25 0.30 2.85 0.70 3.65 0.85 0.75 0.15 1.50 0.45 1.65 0.70 0.15 0.25 0.70 0.45 1.25 0.45 1.25 0 8.30 3.20 9.60 4.40 0.55 0.45 1.65 1.75 2.40 2.80 1.25 1.70 1.45 2.40 1.45 5.40 0 3.85 -1.15 6.85 -3.25 8.20 -2.45 1.60 -4.60 1.40 -11.80 -1 -7.55 -2.50 -13.15 -3.75 -22.85 -5.05 -1.20 -0.15 -12.05 -0.30 -24.10 -0.30 -23.85 0 -24.35 0.05 -26.75 2.85 -1.65 1.90 -2.45 6 -1.65 8.20 0.85 2.30 1.80 3.55 3.65 4.75 1.45 0.95 2.45 1 21.65 1.05 11.10 0.05 21.65 0.25 23.50 0.50 1.85 0.20 3.85 0.30 4.45 0.25 0.60 -0.05 1.95 0.10 3 0.40 1.05 0.25 2.90 0.65 4.15 0.80 1.20 0.20 2.40 0.45 2.65 0.60 0.25 0.15 1.05 0.35 1.75 0.40 2 0.25 4.20 0.75 5.35 1.25 0.55 0.20 2.95 1 5.30 1.75 7.75 2.40 10.75 4.75 12.20 9.50 0.60 2.10 0.60 2.60 -0.25 5.15 -1.05 3.25 -3.10 5.30 -6.15 6.20 -2.25 0.70 -4.35 0.30 -11.10 -2.10 -11.25 -3.95 -20 -4.85 -47.40 -4.95 -15.35 -0.10 -18.90 0.05 -20.35 0.65 -7 2.90 -6.35 13.15 1 15.70 1.15 0.40 8.05 0.60 22.75 0.60 16.25 0 22.25 0.15 26.15 0.75 2.80 0.40 5.35 0.85 5.70 1 0.35 0.10 1.20 0.35 1.90 0.45 0.70 0.15 2.40 0.50 3.75 0.80 1.40 0.30 3.10 0.70 3.90 0.85 0.75 0.15 1.50 0.45 1.65 0.70 0.15 0.25 0.65 0.45 1.15 0.45 1.95 0 10.45 3.90 12.20 5.60 2.10 2.10 3.50 5.85 3.15 8.65 -0.10 1.10 -0.25 2.15 -0.25 2.35 -0.10 0.95 -3.90 4.55 -5.75 5.45 -2.75 1.30 -3.65 1.20 -8.95 -0.85 -2.55 -1 -5.35 -2 -6.20 -2.25 -0.90 -0.25 -2.50 -0.70 -3.50 -1 -1.95 -0.55 -3.25 -0.80 -10.90 -2.15 -5.90 -1.05 -49.80 -1.15 -51.60 -0.15 -3 1.65 -4.85 6.60 -3.60 9.60 0.35 0.85 0.65 1.80 0.75 2.15 0.20 1.10 2.80 3.10 4.70 3.60 0.95 0.25 7.25 0.50 14 0.55 22.80 0.05 36.10 0.85 43 2.45 1.25 0.30 3.20 0.65 4.40 0.85 1.15 0.15 2.25 0.50 2.40 0.70 0.15 0.25 0.80 0.45 1.45 0.45 0.65 0 1.35 0.25 1.50 0.50 0.15 0.30 0.75 0.50 1.30 0.50 0.55 0 1.95 0.45 3.10 1.05 1.15 0.55 2.55 1.10 3.05 1.20 0.55 0.15 1.10 0.40 1.25 0.60 0.15 0.25 0.65 0.45 1.05 0.55 1.85 0.40 4.40 2.65 5.40 4.80 1.95 4.05 1.10 8.25 -2.25 11.40 -3.70 3.50 -6.95 3.30 -17.90 -1.10 -0.55 -0.25 -2 -0.65 -3.25 -0.90 -1.25 -0.30 -2.80 -0.65 -3.50 -0.85 -6.70 -1.60 -11.05 -1.85 -32.90 -2.10 -12.45 -0.15 -23.40 -0.10 -24.35 0.05 -4.05 0.75 -6.75 5.25 -6 9.90 0.50 2.95 1.55 4.55 3.65 5.70 1.65 0.90 2.80 0.95 15.80 0.80 14.45 -0.15 34.20 0.60 37.35 1.45 1 0.25 2.45 0.55 3.25 0.65 3.55 0.55 5.50 0.95 6.40 1.40 0.50 0.30 1.40 0.55 2 0.65 1.55 0.25 3.65 0.95 7.05 2.45 8.25 3.65 9.85 4.95 11.25 8.95 1 2.80 1 2.80 0 5.50 -1 2.65 -3.15 5.15 -5.45 6.35 -2.20 1.15 -6 0.80 -9.55 -0.85 -4.10 -1.90 -8.40 -3.35 -12.25 -4.15 -1.65 -0.30 -3.45 -0.70 -4 -0.80 -6.40 -1.45 -47.10 -2.35 -51.50 -1.15 -2.05 0.55 -4.75 2.70 -4.75 3.75 0 0.35 -0.25 0.70 -0.55 0.80 -0.30 0.10 -0.55 1.50 -0.50 3.25 0 4.20 1.30 6.25 5.05 8 1.55 0.70 4.15 0.80 21.50 0.70 18.90 -0.10 21.85 0.05 30.25 1.50 6.80 1.15 15.90 4.30 16.35 5.55 0.30 0.95 0 16.90 -0.35 18.65 -0.15 0.85 -0.35 2.45 -0.45 3.60 -0.15 1.10 -0.45 2.50 -0.75 3.05 -0.30 0.55 -0.40 1.40 -0.25 1.85 0.20 0.50 0.05 1.05 -0.30 1.25 -0.35 0.20 -0.70 1 -0.75 1.70 -0.10 0.75 -0.45 1.70 -0.80 2.10 -0.30 0.40 -0.45 0.85 -0.30 1.05 0.20 0.15 0.10 0.60 -0.20 0.95 -0.25 0.35 -1.40 2.40 -2.45 4.55 -2.45 4.95 -4.05 7.30 -7.55 10.95 -3 3.20 -6.25 6.20 -6.70 6.20 -0.30 0 -4.30 2.55 -4.75 3 -0.40 0.40 -6.50 2.55 -8.70 3.05 -1.10 0.30 -2.15 0.60 -2.45 0.80 -0.90 0.55 -8.45 0.60 -9.55 0.10 -3.50 -1.80 -9.90 -10.50 -10.95 -14.95 -0.15 -0.70 -0.55 -2.15 -0.85 -3.25 -0.75 -2.75 -1.95 -10.10 -2 -12.30 0 -2.50 -1.10 -4.95 -3.10 -6.85 -1.50 -1.50 -1.85 -1.60 -4.65 -1.55 -1.65 0.05 -3.10 0.25 -3.25 0.40 -0.15 0.15 -0.70 0.55 -1.20 0.85 -0.55 0.30 -1.20 0.95 -1.50 1.50 -0.30 0.50 -0.75 1.10 -1.05 1.30 -0.70 0.50 -0.55 14.80 0.15 15.50 0.30 0.30 0.40 0.85 0.25 1.20 -0.15 0.40 0 0.70 0.30 0.70 0.35 0 0.45 0.45 0.25 1.20 -0.15 0.65 0.05 1.85 0.50 2.70 0.40 0.80 0.65 1.60 0.50 1.70 -0.15 0.15 0 0.90 0.35 1.70 0.30 0.80 0.80 2 1.05 2.70 0.60 1.45 1.45 3.10 2.75 5.35 1.70 3 -0.35 4.10 -5.85 3.15z m-30.50 -0.70 c0 -0.10 -0.65 -1.55 -1.50 -3.20 -1.45 -2.95 -2.25 -5.20 -3.45 -9.60 -2.15 -7.80 -2.60 -10.40 -2.65 -15.75 -0.10 -4.40 0.05 -5.25 1.05 -7.05 2.80 -5 10.10 -5.70 14.40 -1.45 0.35 0.40 1.05 1.65 1.60 2.85 0.80 1.95 1.15 3.75 1.85 9.65 1.80 15.10 9.50 23.60 22.40 24.60 l2.95 0.25 -1.15 -1.85 c-3.10 -5.05 -4.90 -10.40 -6.50 -19.45 -0.65 -3.95 -0.65 -10.75 0.05 -12.85 1.80 -5.25 7.40 -8.30 11.80 -6.30 4.05 1.80 5.65 4.90 6.40 12.35 1.05 10.80 4.15 18.50 9.60 23.95 l3.20 3.20 3.85 -0.35 c5.45 -0.45 9.80 -1.60 14.25 -3.85 6 -3 8.70 -5.05 13.35 -10.25 4.90 -5.40 8.80 -13.45 11.15 -22.95 0.85 -3.50 1.25 -7.15 1.65 -17.35 l0.35 -7.40 -1.25 0 c-0.65 0 -1.40 -0.20 -1.70 -0.40 -0.55 -0.55 -6.45 -2.30 -9.95 -3.05 -1.35 -0.25 -3.75 -0.75 -5.25 -1.10 -1.80 -0.40 -10.85 -0.70 -26 -0.90 -25.40 -0.35 -24.35 -0.20 -27.30 -3.40 -2.50 -2.75 -3.25 -6.25 -2.05 -9.80 0.85 -2.45 2.15 -4 4.45 -5.30 1.80 -1.10 2.10 -1.10 24 -1.05 12.20 0.05 22.60 0.15 23.15 0.20 10.10 1.35 17.70 3.35 24.90 6.50 3.45 1.55 4.70 1.60 7.50 0.30 4.90 -2.35 6.35 -9.45 2.65 -13.15 -0.95 -0.90 -6.30 -3.80 -10.05 -5.40 -2.65 -1.15 -9.70 -3.15 -13.75 -3.90 -7.75 -1.40 -10.55 -1.55 -31.25 -1.55 -22.95 0 -24.50 -0.15 -26.95 -2.25 -1.80 -1.55 -3.30 -5.05 -3.30 -7.75 0 -2.60 1.50 -6.20 3.15 -7.60 2.80 -2.45 2.55 -2.45 25 -2.35 11.60 0.05 22.80 0.25 24.85 0.50 7.15 0.85 11.75 1.55 14.50 2.30 1.50 0.40 3.30 0.85 4 1 0.70 0.15 1.50 0.45 1.75 0.65 0.30 0.15 1.50 0.65 2.75 1 1.25 0.35 2.50 0.80 2.75 1 0.30 0.20 1.45 0.60 2.65 1 4.80 1.50 10.10 -2.65 10.10 -8 0 -1.75 -1.10 -4.70 -2.25 -5.80 -0.90 -0.95 -8.85 -4.70 -9.90 -4.70 -0.45 0 -0.95 -0.20 -1.10 -0.50 -0.15 -0.25 -0.85 -0.50 -1.50 -0.50 -0.65 0 -1.30 -0.20 -1.45 -0.45 -0.15 -0.25 -1 -0.55 -1.90 -0.70 -0.90 -0.15 -3.65 -0.75 -6.15 -1.35 -7.85 -1.85 -11 -2.10 -34.50 -2.40 -15.95 -0.25 -23.40 -0.55 -24.30 -0.95 -1.70 -0.75 -3.75 -2.80 -4.75 -4.75 -0.95 -1.80 -1.05 -6.50 -0.25 -8.60 0.70 -1.70 3.30 -4.35 5.10 -5.15 1.40 -0.60 39.05 -0.55 45.95 0.05 9.65 0.85 18.05 2.85 26.65 6.25 3.10 1.25 4.35 1.50 5.75 1.25 6.70 -1.25 9.30 -8.90 4.80 -14 -2.65 -3 -15 -7.40 -26.45 -9.45 -5.70 -1 -12.45 -1.30 -33.80 -1.45 l-18.80 -0.10 -2.25 -1.35 c-3.25 -1.90 -4.60 -4.30 -4.65 -8.35 0 -3.80 0.95 -5.80 3.90 -8.20 l1.95 -1.55 12.80 0 c22.80 0.05 36.30 0.35 39.60 0.85 5.30 0.80 15 3.30 19 4.90 4.50 1.75 6.50 1.85 9 0.45 4.90 -2.75 5.30 -10.30 0.70 -13.70 -2.25 -1.70 -11.05 -4.95 -16.95 -6.30 -10.60 -2.40 -12.10 -2.55 -36.40 -2.80 -21.70 -0.20 -23.55 -0.30 -25.65 -1.20 -4.05 -1.70 -5.70 -4.30 -5.70 -8.80 0 -3.55 0.65 -5.30 2.60 -7.25 2.90 -2.90 3.05 -2.90 26.80 -2.90 12.80 0 23.60 0.25 26.30 0.55 7.10 0.85 15.75 2.75 20.60 4.50 7.20 2.55 8.95 2.80 10.95 1.75 2.85 -1.55 4.25 -5.60 3.25 -9.35 -0.80 -2.85 -3.90 -5.80 -7.80 -7.40 -1.60 -0.60 -3.40 -1.35 -3.95 -1.55 -0.55 -0.25 -1.55 -0.55 -2.25 -0.75 -0.70 -0.15 -2.05 -0.55 -3 -0.80 -3.25 -0.90 -8.25 -1.95 -9.35 -1.95 -0.65 0 -1.15 -0.15 -1.15 -0.35 0 -0.50 -0.25 -0.50 -20.75 -0.85 -35.15 -0.60 -32.30 -0.35 -35.40 -3.25 -5.35 -4.90 -2.75 -15.35 4.15 -16.75 2.55 -0.50 38.10 -0.35 45.20 0.20 6.60 0.55 15.85 2.30 22.05 4.20 1.35 0.40 2.50 0.70 2.55 0.65 0.05 -0.05 0.30 -3.25 0.55 -7.10 0.60 -10 0.50 -22.05 -0.20 -25.25 -0.35 -1.50 -0.75 -3.40 -0.90 -4.25 -0.20 -0.80 -1.45 -3.85 -2.85 -6.70 -2.10 -4.40 -3.10 -5.80 -6.55 -9.30 -2.90 -2.90 -5.05 -4.50 -7.35 -5.65 -4.75 -2.25 -6.20 -2.60 -11.65 -2.65 -4.35 -0.05 -5.10 0.10 -7 1.20 -5.90 3.50 -10.85 11.90 -13.85 23.60 -1.80 7.10 -3.75 9.65 -8.20 10.85 -1.85 0.50 -2.65 0.50 -4.15 -0.05 -2.60 -0.90 -5 -2.80 -5.95 -4.65 -1 -1.90 -0.75 -6.20 0.55 -10.40 2.40 -7.65 2.90 -9.05 4.25 -12.25 1.35 -3.20 1.80 -4.05 3.10 -6.20 0.80 -1.25 1.40 -2.45 1.40 -2.70 0 -0.65 -5.45 0 -8.55 1.05 -4.25 1.40 -6.65 2.85 -9.15 5.65 -3.60 4 -5.45 8.45 -9.90 23.70 -1.30 4.45 -4.85 7.25 -9.20 7.25 -5.85 0 -10.05 -5.65 -8.70 -11.70 1 -4.30 3.50 -11.25 6 -16.80 1.35 -2.90 2.35 -5.30 2.25 -5.40 -0.30 -0.35 -10.75 5.35 -11.75 6.40 -0.15 0.15 -1.15 0.95 -2.25 1.75 -3.30 2.45 -9.35 8.80 -11.75 12.25 -1.25 1.80 -2.35 3.35 -2.50 3.50 -1.05 1.05 -5.30 9.90 -6.45 13.50 -1.95 5.90 -2.05 6.30 -2.05 7.45 0 0.60 -0.20 1.50 -0.45 1.95 -0.20 0.45 -0.55 2.05 -0.70 3.45 l-0.30 2.65 12.90 0 12.95 0 2.40 1.65 c3.25 2.20 4.10 3.85 4.15 7.95 0.05 2.60 -0.20 3.75 -1.05 5.25 -2.80 4.75 -4.45 5.15 -20.45 5.15 l-12.90 0 -0.25 2.65 c-0.15 1.40 -0.40 3.95 -0.55 5.60 -0.15 1.65 -0.40 4.25 -0.55 5.75 l-0.30 2.75 13.65 0 c12.90 0 13.80 0.05 15.45 1 2.60 1.55 5 5.35 5 8 0 3.95 -2.10 7.50 -5.50 9.25 -2.10 1.05 -7 1.85 -7 1.10 0 -0.25 -1.35 -0.50 -3 -0.55 -1.65 0 -3 0.20 -3 0.45 0 0.75 -5.35 0.60 -5.65 -0.10 -0.20 -0.50 -0.40 -0.50 -0.75 0 -0.35 0.50 -1.75 0.65 -5.65 0.55 l-5.15 -0.15 -0.60 5.25 c-0.30 2.85 -0.70 6.60 -0.85 8.35 l-0.30 3.10 13.05 0 c8.20 0 13.75 0.20 14.90 0.55 6.95 2.10 8.80 11.50 3.30 16.35 -3.10 2.75 -5.50 3.10 -19.80 3.10 l-12.85 0 -0.60 5.90 c-0.30 3.20 -0.70 6.90 -0.80 8.25 l-0.20 2.35 13.25 0 c11.50 0 13.55 0.10 15.10 0.85 2.30 1.05 2.75 1.55 4.10 3.90 2.55 4.50 0.95 10.60 -3.50 13.35 l-2.25 1.35 -13.90 0.20 c-7.65 0.15 -13.95 0.30 -14.05 0.40 -0.25 0.25 -0.80 4.80 -1.20 10.45 -0.20 2.60 -0.55 5.05 -0.75 5.40 -0.35 0.45 2.30 0.60 12.50 0.60 13.35 0 15.20 0.20 17.90 2.10 2.55 1.75 3.50 4 3.50 8.35 0 4.25 -1.05 6.50 -3.95 8.40 -2.30 1.50 -3.85 1.65 -18.15 1.70 -11.10 0.05 -13.10 0.15 -13.35 0.80 -0.15 0.40 -0.45 2.35 -0.60 4.30 -0.25 3.55 -0.35 4.15 -1 9 l-0.35 2.35 13.50 0 c15.30 0 15.90 0.10 18.80 3.55 2 2.30 2.65 4.80 2.10 8.05 -0.65 3.65 -2.45 5.85 -6.05 7.40 -2.10 0.90 -3.45 1 -16.25 1 l-13.95 0 -0.05 2.90 c0 1.55 -0.15 3.30 -0.30 3.85 -0.10 0.55 -0.35 4.35 -0.50 8.45 -0.25 7.05 0.20 12.30 1.30 15.80 0.25 0.70 0.70 2.25 1.10 3.50 0.85 3.05 4.50 10.35 6.75 13.60 4 5.75 10.05 11.75 15.50 15.25 0.50 0.35 2.30 1.50 3.95 2.60 2.85 1.85 3.75 2.30 3.75 1.85z"/>
 </g>
 <g fill="#d10000">
  <path d="M295.75 742.75 c-3.60 -1.85 -3.60 -4.20 -0.20 -14.65 1.40 -4.30 2.75 -8.25 3 -8.70 0.25 -0.50 0.45 -1.35 0.45 -1.85 0 -0.55 0.25 -1.15 0.50 -1.30 0.30 -0.15 0.50 -0.75 0.50 -1.30 0 -0.50 0.20 -1.35 0.45 -1.85 0.35 -0.70 5.80 -17.25 9.55 -29.10 1.50 -4.80 1.75 -8.20 0.80 -11.90 -1.60 -6.35 -1.90 -6.65 -29.55 -29.35 -10 -8.25 -15.60 -12.85 -19 -15.70 -4.70 -3.90 -4.25 -3.50 -12.50 -10.30 -10 -8.25 -11.25 -9.35 -11.25 -9.80 0 -1 1.20 -0.25 5.60 3.45 2.55 2.10 5 4.10 5.40 4.45 0.40 0.30 2.20 1.75 3.95 3.25 1.75 1.45 4.50 3.65 6.05 4.90 1.60 1.25 5.10 4.10 7.80 6.40 2.75 2.30 7.05 5.90 9.65 8 2.55 2.10 5.75 4.75 7.05 5.85 1.35 1.10 5.05 4.15 8.25 6.75 11.30 9.15 16.45 13.90 17.70 16.45 1.35 2.60 2.55 7.15 2.55 9.50 0 2.55 -0.90 6.90 -1.85 8.70 -0.35 0.75 -0.90 2.30 -1.15 3.50 -0.25 1.15 -2.45 8.05 -4.90 15.35 -7.40 21.90 -10.60 32.15 -10.60 34.05 0 2.40 2 4.50 3.90 4.15 7.35 -1.35 27.65 -4.65 31.85 -5.20 1.95 -0.25 4.95 -0.70 6.75 -1 1.80 -0.30 4.85 -0.75 6.75 -1 1.95 -0.30 5.30 -0.80 7.50 -1.20 3.70 -0.70 7.90 -1.35 9.75 -1.55 0.70 -0.10 4.90 -0.75 11.15 -1.80 1.55 -0.25 4.15 -0.65 5.75 -0.90 1.55 -0.30 4.45 -0.70 6.35 -1 7.50 -1.10 14.15 -2.10 17 -2.60 1.65 -0.25 3.90 -0.55 5 -0.70 1.10 -0.15 3.90 -0.60 6.25 -1 2.35 -0.40 6.10 -1 8.40 -1.30 2.25 -0.30 4.10 -0.70 4.10 -0.90 0 -0.15 -2.65 -1.65 -5.90 -3.30 -9.80 -5.05 -24.30 -15.10 -31.35 -21.80 -0.80 -0.75 -1.80 -1.70 -2.20 -2.05 -3.60 -3.40 -8.65 -8.85 -10.95 -11.85 -1.55 -2.05 -3.35 -4.25 -3.90 -4.90 -1.10 -1.20 -1.60 -1.95 -6.40 -9.30 -2.65 -4.05 -8.45 -15 -10.35 -19.65 -2.20 -5.20 -5.50 -15.70 -7.10 -22.45 -4.45 -18.70 -4.40 -17.95 -4.35 -80.65 0 -52.85 0.05 -53.75 1.05 -57.75 1.75 -6.70 4.10 -11 9 -16.15 2.55 -2.75 7.30 -6.20 10 -7.35 2.10 -0.85 2.10 -0.70 2.95 -10.85 0.30 -3.45 0.75 -8.40 1 -11 0.25 -2.60 0.70 -7.80 1.05 -11.50 0.30 -3.70 0.75 -7.95 1 -9.45 0.25 -1.50 0.45 -4.45 0.50 -6.50 0.05 -2.10 0.20 -5.15 0.40 -6.80 l0.30 -3 -7.05 -7 c-3.85 -3.85 -9.70 -9.90 -13 -13.50 -3.25 -3.55 -8.30 -8.95 -11.20 -12 -12.65 -13.30 -21.20 -22.40 -26.75 -28.45 -2.45 -2.75 -5.60 -6.10 -7 -7.50 -1.35 -1.40 -5.30 -5.60 -8.75 -9.30 -3.45 -3.65 -7.35 -7.85 -8.75 -9.25 -1.35 -1.40 -5.30 -5.50 -8.70 -9.15 -6.10 -6.45 -6.25 -6.60 -8.35 -6.60 -2.75 0 -3.80 1.30 -4.60 5.65 -0.70 3.80 -2.05 7.35 -2.10 5.45 0 -1.85 2 -8.75 2.95 -10.10 0.50 -0.70 1.65 -1.50 2.55 -1.80 2.55 -0.85 4.65 0.05 7.60 3.25 1.45 1.55 6.10 6.50 10.40 11.05 4.30 4.55 9.05 9.55 10.55 11.20 1.50 1.60 4.85 5.20 7.50 8 2.60 2.75 8.45 9 12.95 13.80 4.50 4.80 11.35 12.10 15.20 16.20 8.45 8.95 7.85 8.35 16.30 17.35 3.70 3.95 8 8.55 9.50 10.20 4.45 4.90 10.55 10.70 11.55 11 1.20 0.40 1.20 1.95 0.20 13.50 -0.45 4.70 -1 11 -1.25 14 -1.25 14.60 -1.50 17.15 -1.70 19 -0.15 1.10 -0.50 4.85 -0.85 8.35 l-0.60 6.30 -2.15 0.85 c-2.50 0.95 -7.70 4.60 -9.95 6.95 -4.80 5 -7.30 9.80 -9.25 17.60 -0.75 3.05 -0.75 110.40 0.05 116.65 0.60 5.25 3.05 17.75 4.25 22.05 1.40 4.95 2.55 8.75 2.85 9.50 0.15 0.40 0.80 2.20 1.40 4 0.60 1.80 1.30 3.45 1.55 3.70 0.20 0.30 0.40 0.85 0.40 1.25 0 1 6.35 13.90 9 18.30 2.30 3.75 6.70 10.35 8.10 12 0.45 0.55 2.25 2.80 4 5 4.05 5.10 13.10 14.15 18.20 18.15 2.15 1.70 4.20 3.35 4.55 3.60 5.80 4.65 28.30 17.50 30.70 17.50 0.50 0 0.95 0.20 0.95 0.45 0 0.35 -1.70 0.70 -10.85 2.10 -1.75 0.25 -4.60 0.70 -6.35 1 -1.75 0.30 -3.90 0.40 -4.75 0.20 -1 -0.20 -1.55 -0.15 -1.55 0.20 0 0.35 -0.50 0.45 -1.25 0.25 -0.85 -0.20 -1.25 -0.10 -1.25 0.30 0 0.45 -0.55 0.55 -1.95 0.30 -1.20 -0.20 -2.05 -0.10 -2.15 0.20 -0.10 0.30 -1.50 0.75 -3.15 1 -1.65 0.25 -6.10 0.90 -9.85 1.50 -3.80 0.55 -7.45 0.90 -8.15 0.70 -0.70 -0.15 -1.25 -0.10 -1.25 0.15 0 0.30 -1.65 0.75 -3.60 1.10 -2 0.30 -5 0.80 -6.65 1.10 -1.65 0.25 -5.30 0.90 -8.10 1.40 -2.85 0.50 -5.15 0.70 -5.15 0.45 0 -0.20 -0.35 -0.40 -0.75 -0.40 -0.40 0 -0.75 0.20 -0.75 0.40 0 0.20 -1.10 0.65 -2.50 0.90 -1.35 0.30 -2.50 0.35 -2.50 0.10 0 -0.20 -0.35 -0.40 -0.75 -0.40 -0.40 0 -0.75 0.20 -0.75 0.40 0 0.40 -1.50 0.70 -18.25 3.40 -2.75 0.45 -5.15 0.90 -5.35 1 -0.25 0.15 -0.40 0 -0.40 -0.25 0 -0.30 -0.35 -0.55 -0.75 -0.55 -0.40 0 -0.75 0.20 -0.75 0.40 0 0.20 -1.10 0.65 -2.50 0.90 -1.35 0.30 -2.50 0.35 -2.50 0.10 0 -0.55 -1.35 -0.50 -1.60 0.05 -0.25 0.65 -12.35 2.65 -14 2.30 -0.85 -0.20 -1.40 -0.10 -1.40 0.20 0 0.80 -1.50 0.65 -3.25 -0.20z"/>
  <path d="M723.40 743.15 c-1.05 -0.10 -1.90 -0.40 -1.90 -0.65 0 -0.25 -0.30 -0.35 -0.70 -0.20 -0.40 0.15 -2.35 0 -4.35 -0.30 -7.90 -1.15 -10.80 -1.60 -13.70 -2 -8.70 -1.15 -15.25 -2.20 -15.25 -2.50 0 -0.20 -0.65 -0.25 -1.50 -0.10 -0.80 0.10 -1.50 0 -1.50 -0.25 0 -0.25 -0.90 -0.35 -2 -0.25 -1.30 0.15 -2 0 -2 -0.40 0 -0.30 -0.20 -0.45 -0.45 -0.30 -0.50 0.35 -12.70 -1.20 -13.05 -1.65 -0.15 -0.15 -1.70 -0.40 -3.50 -0.45 -1.80 -0.10 -3.30 -0.35 -3.40 -0.55 -0.05 -0.25 -0.70 -0.30 -1.35 -0.15 -0.70 0.10 -1.25 0 -1.25 -0.20 0 -0.25 -1.20 -0.45 -2.60 -0.50 -3.35 0 -8.90 -0.75 -8.90 -1.15 0 -0.15 -1.40 -0.35 -3.10 -0.45 -1.75 -0.10 -3.25 -0.30 -3.40 -0.50 -0.15 -0.20 -1.60 -0.40 -3.25 -0.50 -1.65 -0.10 -3.10 -0.35 -3.25 -0.50 -0.15 -0.20 -1.70 -0.45 -3.50 -0.50 -1.80 -0.10 -3.30 -0.35 -3.40 -0.55 -0.05 -0.20 -0.80 -0.25 -1.60 -0.15 -0.85 0.10 -1.50 0 -1.50 -0.25 0 -0.25 -0.90 -0.35 -2 -0.25 -1.10 0.10 -2 0 -2 -0.30 0 -0.25 -0.55 -0.35 -1.25 -0.20 -0.70 0.10 -1.25 0 -1.25 -0.20 0 -0.25 -1.20 -0.45 -2.60 -0.50 -3.35 0 -8.90 -0.75 -8.90 -1.15 0 -0.15 -1.30 -0.35 -2.90 -0.40 -1.55 -0.10 -5.10 -0.50 -7.85 -0.90 -2.75 -0.45 -6.20 -0.95 -7.65 -1.10 -3 -0.35 -2.95 -0.45 1.15 -2.70 4.50 -2.40 17.45 -11.10 19.25 -12.95 0.15 -0.15 1.95 -1.70 4 -3.50 10.60 -9.15 24.20 -25.65 30.05 -36.50 0.65 -1.25 1.35 -2.35 1.50 -2.50 0.65 -0.55 7.20 -14.40 8.70 -18.50 0.45 -1.25 1 -2.70 1.25 -3.25 0.60 -1.45 1.30 -3.70 2 -6.25 0.35 -1.25 0.80 -2.80 1 -3.50 0.50 -1.55 2.25 -8.90 2.95 -12.25 2.45 -12.40 2.55 -15 2.60 -74.50 0 -62.60 0.30 -57.40 -3.45 -65.25 -3.15 -6.65 -10.05 -12.50 -18.35 -15.55 -1.65 -0.60 -3.05 -1.15 -3.15 -1.20 -0.10 -0.10 0.05 -2 0.35 -4.30 0.25 -2.30 0.75 -6.90 1.05 -10.20 1.05 -11.15 1.10 -11.50 1.50 -10.75 0.20 0.40 0 4.60 -0.50 9.25 -1.60 15.20 -1.60 14.60 -0.60 14.90 3.25 1.05 9.05 4.15 11.80 6.30 7.40 5.90 11.20 12.85 12.25 22.30 0.30 2.60 0.50 25 0.55 52.50 0.05 43.85 -0.10 50.65 -1.25 62.25 -0.10 1.25 -0.35 3.85 -0.55 5.75 -0.20 1.95 -0.65 4.95 -1.05 6.75 -0.35 1.80 -1.10 5.30 -1.65 7.80 -0.50 2.50 -1.40 5.65 -1.90 7 -0.55 1.35 -1.40 4.05 -1.85 5.95 -0.50 1.95 -1.05 3.85 -1.25 4.25 -0.20 0.40 -0.90 2 -1.50 3.50 -5.20 12.55 -13.75 27.35 -20.45 35.45 -1 1.20 -2.15 2.70 -2.55 3.25 -0.40 0.60 -0.95 1.30 -1.25 1.60 -0.25 0.30 -1.95 2.20 -3.75 4.20 -3.35 3.85 -10.45 10.85 -13.50 13.30 -0.95 0.80 -2.10 1.80 -2.55 2.20 -0.45 0.40 -2.90 2.20 -5.45 4 -2.55 1.80 -5.55 3.95 -6.70 4.75 -1.15 0.85 -3.15 2.05 -4.45 2.75 -1.30 0.65 -2.35 1.35 -2.35 1.55 0 0.40 10.55 2.15 21.25 3.45 4.70 0.60 13.60 1.95 18.25 2.80 2.35 0.40 6.05 0.95 8.25 1.20 2.20 0.30 5.50 0.70 7.40 1 1.85 0.25 4.85 0.75 6.75 1 1.85 0.30 4.95 0.70 6.90 0.95 2 0.25 3.80 0.55 4.10 0.75 0.25 0.15 1.80 0.40 3.40 0.55 1.65 0.15 4.65 0.50 6.70 0.80 2.05 0.30 5.10 0.70 6.75 0.95 1.65 0.25 4.70 0.70 6.75 1 2.05 0.30 4.55 0.65 5.50 0.75 1.65 0.20 5.15 0.75 10.65 1.80 1.30 0.25 3.45 0.45 4.70 0.45 1.30 0 3 0.20 3.85 0.45 0.85 0.30 3.25 0.75 5.30 1.05 2.05 0.30 5.35 0.85 7.25 1.20 3.75 0.75 4.70 0.55 6.40 -1.35 0.45 -0.55 0.85 -1.45 0.85 -1.95 0 -0.90 -5.50 -17.90 -11.35 -35.15 -1.50 -4.40 -3.25 -9.80 -3.90 -12 -0.65 -2.20 -1.65 -5.55 -2.25 -7.50 -1.95 -6.50 -1.70 -10.30 1.05 -15.75 1.75 -3.35 7.95 -9.75 12.60 -12.95 0.60 -0.40 1.45 -1.10 1.85 -1.55 0.40 -0.40 4.25 -3.60 8.50 -7 4.25 -3.40 8.20 -6.65 8.75 -7.15 0.55 -0.50 3.60 -3.05 6.75 -5.65 9.70 -7.95 13.60 -11.20 16.95 -14.15 1.75 -1.55 3.70 -3.10 4.25 -3.50 0.60 -0.40 1.15 -0.85 1.30 -1 0.25 -0.30 4.90 -4.25 7.25 -6.20 0.55 -0.45 1.70 -1.35 2.55 -1.95 0.90 -0.65 3.80 -3.05 6.50 -5.30 6.90 -5.85 7.90 -6.70 12.45 -10.40 2.20 -1.80 4.90 -4.05 6 -4.95 1.10 -0.90 2.95 -2.35 4.10 -3.20 1.10 -0.80 2.20 -1.70 2.40 -2 0.15 -0.30 2.60 -2.40 5.40 -4.65 2.80 -2.30 5.55 -4.50 6.10 -4.95 0.55 -0.50 3.25 -2.70 6 -5 2.75 -2.30 5.25 -4.40 5.55 -4.65 0.30 -0.30 1.30 -1.10 2.20 -1.80 0.95 -0.70 2.45 -1.90 3.35 -2.70 0.95 -0.80 2.45 -2 3.40 -2.75 2.90 -2.25 8.95 -7.25 10.05 -8.30 0.55 -0.55 1.90 -1.65 3 -2.50 1.05 -0.80 2.85 -2.30 3.95 -3.25 1.10 -1 3.25 -2.80 4.75 -4 1.50 -1.25 3 -2.50 3.25 -2.80 0.30 -0.30 1.40 -1.20 2.50 -2 3 -2.20 3.75 -2.80 6.20 -5 2.05 -1.80 13.75 -11.45 21.75 -17.90 1.70 -1.35 3.35 -2.90 3.70 -3.40 0.35 -0.50 0.95 -0.90 1.35 -0.90 1.85 0 2.95 -4.30 1.55 -6.10 -0.35 -0.45 -3.90 -2.40 -7.95 -4.35 -9.40 -4.50 -26.35 -12.75 -29.75 -14.50 -5.20 -2.70 -8.40 -7.05 -8.95 -12.20 -0.25 -2.65 -0.15 -3.10 2.85 -13.60 0.90 -3 1.70 -6.25 1.85 -7.15 0.15 -0.90 0.45 -1.75 0.70 -1.90 0.25 -0.15 0.45 -0.75 0.45 -1.30 0 -0.60 0.20 -1.75 0.50 -2.60 0.60 -1.90 1.95 -6.75 4.05 -14.55 0.85 -3.30 2.10 -7.70 2.75 -9.75 1.40 -4.50 3.15 -11 3.70 -13.80 0.25 -1.10 0.65 -2.55 0.95 -3.25 0.30 -0.65 0.85 -2.65 1.30 -4.45 0.40 -1.80 1.10 -4.50 1.55 -6 1.30 -4.40 3.75 -13.10 4.20 -15 0.40 -1.60 2 -7.65 4.25 -15.75 0.45 -1.65 1.10 -4 1.50 -5.25 0.40 -1.25 1.20 -4.15 1.80 -6.45 1.05 -4.15 1.05 -4.20 0.05 -5.50 -0.80 -1.05 -1.40 -1.35 -3.60 -1.45 -1.50 -0.10 -3.70 0.15 -4.95 0.55 -1.25 0.40 -3.20 0.90 -4.30 1.05 -1.10 0.20 -3.10 0.70 -4.50 1.05 -1.35 0.40 -6.30 1.65 -11 2.75 -4.65 1.10 -9.60 2.35 -11 2.75 -1.35 0.40 -3.75 1 -5.25 1.30 -1.50 0.30 -3.55 0.75 -4.50 1 -0.95 0.20 -3.65 0.85 -6 1.40 -2.35 0.50 -5.05 1.20 -6 1.50 -0.95 0.30 -2.40 0.70 -3.25 0.80 -2.70 0.45 -8.55 1.90 -15 3.75 -0.80 0.25 -2.85 0.70 -4.50 1 -1.65 0.30 -7.60 1.70 -13.25 3.15 -15.20 3.80 -18.80 3.55 -25.05 -1.75 -3.70 -3.10 -5.20 -6.65 -7.70 -18.15 -0.45 -2.20 -1.25 -5.90 -1.80 -8.25 -0.50 -2.35 -1.35 -6.45 -1.95 -9.10 -3.75 -17.95 -4.35 -20.25 -5.70 -21.15 -2.50 -1.75 -3.35 -1.25 -12.20 7.65 -7.30 7.35 -7.40 7.30 -0.35 -0.15 8.25 -8.70 9.50 -9.65 11.95 -9.05 2.95 0.75 3.75 2.45 6 12.80 0.45 2.05 1.25 5.65 1.80 8 0.55 2.35 1.90 8.55 3 13.75 1.10 5.25 2.25 10.30 2.50 11.30 0.30 1 0.50 2.20 0.50 2.70 0 0.45 0.75 2.30 1.65 4.10 1.70 3.45 4.55 6.40 7.75 7.95 2.60 1.25 8.10 1.50 11.85 0.45 1.65 -0.45 3.95 -1.05 5.10 -1.30 1.15 -0.20 4.20 -0.95 6.75 -1.60 2.55 -0.65 5.80 -1.45 7.15 -1.75 1.40 -0.30 8.60 -2.05 16 -3.85 7.45 -1.85 14.95 -3.65 16.75 -4.05 1.80 -0.40 4.05 -0.95 5 -1.20 0.95 -0.30 3.80 -0.95 6.25 -1.55 2.50 -0.55 7.25 -1.65 10.65 -2.50 3.35 -0.80 8.95 -2.15 12.50 -2.95 3.50 -0.85 7.15 -1.75 8.10 -2 0.95 -0.25 2.65 -0.70 3.75 -1 6.85 -1.70 10.25 1.10 8.85 7.40 -0.55 2.60 -2.60 10.05 -4.10 15.10 -0.55 1.80 -1.30 4.50 -1.70 6 -1.10 4.20 -2.65 9.85 -3.80 14 -0.60 2.05 -1.50 5.35 -2 7.25 -1.05 3.85 -3.05 11.05 -4.55 16.50 -0.55 1.95 -1.50 5.55 -2.20 8 -0.65 2.50 -1.70 6.20 -2.25 8.25 -0.60 2.05 -1.75 6.25 -2.60 9.25 -1.50 5.60 -2 7.30 -2.95 10.65 -0.30 1 -0.70 2.65 -0.95 3.60 -0.20 0.95 -0.90 3.45 -1.45 5.50 -0.60 2.05 -1.20 4.45 -1.40 5.25 -0.15 0.85 -0.45 1.75 -0.65 2 -0.20 0.30 -0.75 2.25 -1.25 4.40 -1.05 4.70 -0.80 8 0.90 10.70 2.60 4.15 2.80 4.25 31.60 18.10 11.50 5.55 11.75 5.70 13.05 7.20 0.75 0.95 1.20 2.05 1.20 3.20 0 1.90 -1.65 3.85 -7 8.15 -1.50 1.25 -2.85 2.35 -3 2.50 -0.15 0.15 -2.60 2.15 -5.50 4.50 -2.90 2.30 -5.35 4.35 -5.50 4.50 -0.15 0.15 -1.50 1.25 -3 2.50 -1.50 1.25 -2.85 2.35 -3 2.50 -0.15 0.15 -1.25 1.05 -2.50 2 -1.25 0.95 -2.55 2 -2.90 2.35 -0.35 0.35 -1.70 1.45 -3 2.50 -1.30 1.05 -2.45 2 -2.60 2.20 -1.10 1.20 -3.95 2.75 -4.75 2.60 -0.80 -0.15 -0.85 -0.10 -0.25 0.30 0.65 0.45 0.60 0.65 -0.25 1.40 -3.25 2.95 -4.90 4 -5.90 3.80 -0.90 -0.20 -0.95 -0.15 -0.35 0.30 0.50 0.40 0.60 0.65 0.20 0.95 -0.75 0.50 -5.35 4.25 -6.10 4.95 -0.35 0.35 -1.70 1.45 -3 2.50 -1.30 1.05 -2.45 2 -2.60 2.15 -0.15 0.15 -1.50 1.25 -3 2.50 -1.50 1.25 -2.85 2.35 -3 2.50 -0.15 0.15 -1.25 1.05 -2.50 2 -1.25 0.95 -2.90 2.30 -3.65 3 -0.80 0.70 -1.85 1.20 -2.40 1.10 -0.60 -0.10 -0.85 0.05 -0.70 0.50 0.15 0.40 -0.30 1.20 -0.95 1.80 -2 1.70 -8.75 7.25 -10.25 8.35 -0.70 0.55 -2.15 1.75 -3.15 2.70 -1.05 0.90 -2.40 2.05 -3 2.50 -0.65 0.40 -1.45 1.05 -1.80 1.40 -0.35 0.30 -1.70 1.45 -3 2.50 -1.30 1.05 -2.45 2 -2.60 2.15 -0.15 0.15 -1.50 1.25 -3 2.50 -1.50 1.25 -2.85 2.35 -3 2.50 -0.15 0.15 -1.50 1.25 -3 2.50 -1.50 1.25 -2.85 2.35 -3 2.50 -0.15 0.15 -1.25 1.05 -2.50 2 -1.25 0.95 -2.55 2 -2.90 2.35 -0.35 0.35 -1.70 1.45 -3 2.50 -1.30 1.05 -2.65 2.15 -3 2.50 -0.35 0.35 -1.70 1.45 -3 2.50 -1.30 1.05 -3.15 2.65 -4.10 3.50 -0.95 0.90 -1.90 1.65 -2.10 1.65 -0.20 0 -0.65 0.30 -1 0.65 -0.35 0.35 -2.10 1.85 -3.90 3.35 -1.75 1.50 -3.55 3.05 -3.90 3.40 -0.40 0.35 -1.50 1.25 -2.50 2 -1 0.75 -2.50 1.95 -3.35 2.65 -1.35 1.20 -14.45 12.15 -16.25 13.60 -2.20 1.75 -6.30 5.15 -6.50 5.35 -0.15 0.15 -1.50 1.25 -3 2.50 -1.50 1.25 -2.85 2.35 -3 2.50 -0.15 0.15 -1.50 1.25 -3 2.50 -1.50 1.25 -2.85 2.35 -3 2.50 -0.40 0.40 -3.60 3.05 -6.30 5.25 -2.35 1.90 -5.85 5.35 -6.95 6.80 -2 2.70 -2.90 5.80 -2.90 10.20 0 4.30 0.15 5 4 16.50 2.25 6.60 4.75 14.25 5.60 17 0.90 2.75 1.80 5.45 2.05 6 0.25 0.55 0.70 1.90 1.05 3 0.30 1.10 0.75 2.45 0.95 3 2.15 5.80 4.60 14.40 4.60 15.95 -0.05 3.60 -3.05 5.50 -7.70 4.95z"/>
  <path d="M236.25 605.60 c-1.15 -1.05 -8.80 -7.30 -9.70 -7.90 -0.05 -0.10 0 -0.35 0.20 -0.65 0.40 -0.70 1.45 -0.15 3.75 1.95 0.95 0.90 2.55 2.10 3.50 2.75 2.40 1.55 4.10 3.50 3.90 4.45 -0.10 0.65 -0.45 0.55 -1.65 -0.60z"/>
  <path d="M223.25 594.90 c-1.40 -1.10 -3.15 -2.60 -4 -3.30 -0.80 -0.75 -2.50 -2.15 -3.75 -3.10 -1.25 -0.95 -2.90 -2.35 -3.75 -3.10 -0.80 -0.75 -1.65 -1.40 -1.85 -1.40 -0.25 0 -0.40 -0.35 -0.40 -0.80 0 -0.40 -0.20 -0.65 -0.40 -0.50 -0.25 0.15 -0.90 -0.10 -1.40 -0.60 -0.50 -0.50 -3.30 -2.80 -6.20 -5.10 -2.90 -2.35 -5.55 -4.50 -5.85 -4.85 -0.35 -0.30 -1.25 -1.05 -1.95 -1.60 -0.70 -0.55 -1.15 -1.25 -0.95 -1.55 0.35 -0.60 1.45 -0.10 3.25 1.60 0.70 0.65 2.95 2.50 5 4.15 2.05 1.60 5.45 4.40 7.50 6.15 2.05 1.75 4 3.30 4.25 3.50 0.30 0.20 2.10 1.70 4 3.30 1.95 1.60 3.95 3.30 4.50 3.75 0.55 0.45 1.80 1.45 2.85 2.20 1.85 1.40 2.65 2.65 2 3.05 -0.20 0.10 -1.50 -0.70 -2.85 -1.80z"/>
  <path d="M190.70 568.10 c-0.50 -0.45 -2.35 -2 -4.05 -3.35 -1.75 -1.40 -3.15 -2.80 -3.15 -3.15 0 -0.35 -0.20 -0.55 -0.45 -0.40 -0.25 0.15 -2.10 -1.10 -4.15 -2.80 -2.05 -1.75 -4.70 -3.95 -5.90 -4.90 -2.20 -1.75 -5.55 -4.55 -6 -5 -0.15 -0.15 -2.60 -2.15 -5.50 -4.50 -2.90 -2.30 -5.35 -4.35 -5.50 -4.50 -0.15 -0.15 -2.60 -2.15 -5.50 -4.50 -2.90 -2.35 -5.70 -4.60 -6.25 -5.05 -6 -5 -7.75 -6.60 -7.75 -7.05 0 -1.15 0.50 -0.80 14.65 10.85 3.40 2.75 7.25 5.90 8.60 7 1.40 1.05 3.05 2.45 3.75 3.10 0.70 0.60 2.95 2.45 5 4.10 2.05 1.65 4.85 4 6.20 5.15 1.35 1.20 2.90 2.45 3.50 2.85 0.60 0.35 1.85 1.45 2.80 2.35 0.95 0.95 3.45 3 5.50 4.60 2.05 1.65 4.25 3.55 4.90 4.25 1.35 1.45 0.75 2.25 -0.70 0.95z"/>
  <path d="M133.15 520.85 c-1.35 -1.15 -3.55 -3 -4.90 -4.10 -1.35 -1.10 -3.10 -2.60 -3.95 -3.30 -0.85 -0.70 -2 -1.65 -2.55 -2.10 -10.50 -8.30 -11.10 -9.15 -9.45 -12.65 0.80 -1.60 1.85 -2.25 12.40 -7.45 18.45 -9 25.20 -12.25 25.50 -12.25 0.85 0 5.80 -3.65 6.60 -4.85 3.40 -5.10 3.65 -8.25 1.20 -16.85 -0.55 -1.95 -1.45 -5.10 -2 -7.05 -0.55 -1.90 -1.45 -5.20 -2 -7.25 -1.90 -7.05 -2.10 -7.75 -2.50 -8.75 -0.25 -0.55 -0.65 -2.10 -1 -3.50 -0.35 -1.35 -0.80 -3.05 -1 -3.75 -0.20 -0.70 -0.90 -3.15 -1.50 -5.50 -0.60 -2.35 -1.30 -4.80 -1.50 -5.50 -0.40 -1.30 -0.50 -1.70 -2.95 -10.50 -4.65 -17.05 -5.95 -21.75 -8.65 -31.25 -1.60 -5.75 -3.15 -11.15 -3.40 -12 -0.20 -0.80 -0.60 -2.30 -0.90 -3.25 -0.25 -0.95 -0.70 -2.65 -1.05 -3.75 -0.30 -1.10 -1.10 -4 -1.80 -6.50 -1.55 -5.60 -1.60 -7.80 -0.10 -9.50 1.90 -2.25 3.85 -2.10 16.10 1 17.75 4.55 76.30 19.25 78.50 19.75 1.10 0.25 5.15 1.25 9 2.20 3.85 1 7.50 1.80 8.05 1.80 2.35 0 7.55 -2.05 9.55 -3.75 3.40 -2.90 4.60 -5.50 6.60 -14.25 0.30 -1.25 0.85 -3.75 1.30 -5.60 0.40 -1.90 1.10 -4.90 1.50 -6.75 0.45 -1.90 1 -4.20 1.25 -5.15 0.25 -0.95 0.90 -4 1.50 -6.75 0.60 -2.75 1.25 -5.45 1.55 -6 0.70 -1.60 0 3.55 -1.10 7.50 -0.50 1.95 -1.15 4.65 -1.45 6 -0.25 1.40 -1.40 6.45 -2.50 11.25 -1.15 4.80 -2.35 10 -2.70 11.55 -0.70 3 -2.95 6.70 -5.15 8.45 -0.70 0.55 -2.75 1.70 -4.55 2.55 -2.95 1.45 -3.50 1.55 -7.25 1.30 -2.70 -0.15 -7 -1.05 -12.60 -2.55 -4.65 -1.30 -10.05 -2.70 -12 -3.10 -5.10 -1 -6.45 -1.35 -17.25 -4.10 -40.30 -10.35 -61 -15.50 -63.80 -15.90 -3.75 -0.55 -5.75 1.70 -4.65 5.25 0.30 1 0.70 2.60 0.95 3.55 0.20 0.95 1.10 4.25 1.95 7.25 2.20 7.70 3.55 12.45 4.60 16.25 0.50 1.80 1.60 5.75 2.45 8.75 0.85 3.05 1.95 7.10 2.50 9 0.50 1.95 1.65 6.10 2.55 9.25 0.85 3.15 1.85 7 2.25 8.50 0.35 1.50 1.35 5.10 2.20 8 2.25 7.65 5.80 20.25 7.80 27.75 0.90 3.60 1.95 6.90 2.20 7.40 0.30 0.50 0.40 1.10 0.25 1.35 -0.15 0.25 0.05 1.20 0.45 2.10 1.40 3.20 2.80 9.35 2.80 12.15 0 3.60 -1.55 7.35 -4.20 10.15 -1.55 1.65 -4.25 3.25 -11.30 6.75 -5.10 2.55 -10.05 4.95 -11 5.40 -0.95 0.40 -4.50 2.15 -7.85 3.85 -3.35 1.70 -6.30 3.10 -6.60 3.10 -1.05 0 -6.10 3.10 -6.60 4.10 -0.80 1.45 -0.05 3.75 1.65 5 0.80 0.65 2.65 2.15 4.05 3.40 1.45 1.25 3.75 3.15 5.10 4.25 5.75 4.50 12.75 10.45 12.75 10.80 0 1.10 -1.10 0.70 -3.35 -1.20z"/>
  <path d="M639.25 434.50 c0.15 -2.35 0.45 -6.25 0.70 -8.75 0.30 -2.45 0.65 -6.75 0.85 -9.55 l0.35 -5 4 -2 c6.20 -3.05 7.25 -3.90 18.60 -15.75 2.75 -2.85 9.75 -10.15 15.55 -16.20 5.75 -6.05 12.30 -12.90 14.50 -15.20 2.15 -2.30 4.85 -5.15 5.95 -6.30 19.20 -19.95 31.05 -32.40 32.75 -34.40 0.90 -1.05 1.75 -1.75 1.90 -1.60 0.30 0.30 -1.55 2.30 -15.45 16.75 -5.40 5.65 -10.45 10.95 -11.20 11.75 -0.70 0.85 -3.95 4.20 -7.15 7.50 -3.25 3.30 -7.20 7.50 -8.85 9.30 -4.20 4.65 -24 25.20 -33.10 34.35 -6.05 6.10 -8.15 7.90 -10.50 8.95 -1.60 0.70 -3 1.45 -3.15 1.60 -0.15 0.20 -0.90 0.60 -1.70 0.95 -1.10 0.50 -1.35 0.85 -1.15 1.70 0.20 0.60 0.10 2 -0.15 3.15 -0.20 1.10 -0.80 5.85 -1.25 10.50 -1.05 10.20 -1.80 14.60 -1.50 8.25z"/>
  <path d="M641.75 360.40 c-0.10 -0.35 -0.55 -2.40 -1 -4.50 -1.15 -5.75 -3.55 -12.85 -6.05 -18.10 -0.40 -0.80 -0.70 -1.70 -0.70 -2 0 -0.30 -0.45 -1.10 -1 -1.80 -0.55 -0.70 -1 -1.50 -1 -1.85 0 -0.95 -7.45 -13.35 -8.50 -14.15 -0.15 -0.15 -0.85 -1.05 -1.50 -2 -0.65 -0.95 -1.35 -1.85 -1.50 -2 -0.15 -0.15 -0.90 -1.15 -1.75 -2.25 -1.90 -2.65 -13.40 -14.10 -16.25 -16.25 -1.25 -0.95 -2.35 -1.85 -2.50 -2 -0.15 -0.15 -1.05 -0.85 -2 -1.50 -0.95 -0.65 -1.85 -1.35 -2 -1.50 -0.25 -0.25 -2.05 -1.45 -7 -4.55 -5.95 -3.80 -15.95 -8.40 -22.25 -10.30 -1.35 -0.40 -2.95 -0.95 -3.50 -1.15 -0.55 -0.25 -1.55 -0.55 -2.25 -0.75 -0.70 -0.15 -2.35 -0.60 -3.75 -0.95 -1.35 -0.40 -4 -0.95 -5.85 -1.30 -2.25 -0.40 -3.40 -0.85 -3.40 -1.30 0 -0.40 -0.20 -0.70 -0.50 -0.70 -0.25 0 -0.50 0.20 -0.50 0.50 0 0.50 -6.15 0.10 -6.40 -0.45 -0.05 -0.20 -1 -0.25 -2.10 -0.15 -1.10 0.10 -2 0 -2 -0.20 0 -0.25 -12.70 -0.35 -28.25 -0.20 -15.55 0.15 -28.25 0.10 -28.25 -0.10 0 -0.55 -1.40 -0.50 -1.60 0.05 -0.20 0.60 -8.80 1.60 -10.25 1.25 -0.65 -0.20 -1.15 -0.10 -1.15 0.15 0 0.30 -1.40 0.80 -3.10 1.15 -9.60 1.95 -22.55 6.45 -29.20 10.20 -1.25 0.70 -2.60 1.10 -3.20 0.95 -0.70 -0.20 -0.95 -0.05 -0.75 0.40 0.15 0.45 -1.15 1.45 -3.75 2.95 -2.20 1.25 -4 2.40 -4 2.55 0 0.20 -0.65 0.60 -1.50 0.95 -0.80 0.35 -1.50 0.75 -1.50 0.95 0 0.20 -0.65 0.75 -1.50 1.20 -0.80 0.50 -1.75 1.15 -2.10 1.50 -0.35 0.35 -1.75 1.50 -3.15 2.60 -3.35 2.70 -12.10 11.40 -14.55 14.50 -1.05 1.35 -2.35 2.95 -2.85 3.50 -4.40 4.90 -12.95 20.60 -15.35 28.15 -0.95 3.05 -2 2.60 -2.80 -1.15 -0.90 -4.35 -2.20 -10.80 -3.20 -16.25 -0.50 -2.60 -1.35 -7.10 -1.90 -10 -3.40 -17.20 -3.70 -18.80 -4.55 -23.25 -1.55 -8.45 -3.45 -18.60 -4.10 -21.75 -0.30 -1.25 -0.70 -3.35 -0.95 -4.75 -0.25 -1.35 -1.15 -6.10 -2 -10.50 -0.85 -4.40 -1.75 -9.10 -2 -10.50 -0.65 -3.60 -4.70 -24.60 -5.50 -28.50 -0.45 -2.15 -0.90 -4.40 -2.50 -13 -0.55 -3 -1.20 -6.50 -1.50 -7.75 -1.90 -8.95 -2.10 -10.55 -1.45 -12.10 0.65 -1.55 3.05 -3.40 4.50 -3.40 0.80 0 4.20 1.65 8.50 4.15 4.30 2.45 19.20 10.95 21.45 12.25 1.25 0.65 4.40 2.50 7 4 2.60 1.50 6 3.40 7.50 4.25 1.50 0.80 3.35 1.90 4.10 2.45 0.70 0.50 1.40 0.90 1.55 0.90 0.25 0 12.30 6.85 13.10 7.50 0.30 0.20 1.85 0.85 3.45 1.45 3.95 1.45 9.60 1.50 13.30 0.10 2.05 -0.80 2.50 -0.85 1.95 -0.25 -1.10 1.10 -5.70 2.20 -9.25 2.20 -4.80 0 -9.35 -1.70 -16.15 -6.10 -2.05 -1.30 -3.95 -2.40 -4.15 -2.40 -0.25 0 -1.90 -0.90 -3.70 -2 -1.80 -1.10 -3.45 -2 -3.65 -2 -0.20 0 -2.05 -1.05 -4.10 -2.40 -2.05 -1.30 -4.55 -2.80 -5.55 -3.35 -1.05 -0.55 -1.90 -1.15 -1.90 -1.35 0 -0.25 -0.25 -0.40 -0.55 -0.40 -0.90 0 -7.40 -3.40 -10.55 -5.55 -1.55 -1.05 -2.95 -1.95 -3.15 -1.95 -0.15 0 -1.75 -0.90 -3.55 -2 -1.80 -1.10 -3.35 -2 -3.40 -2 -0.05 0 -2.55 -1.35 -5.50 -3 -5.60 -3.10 -7.75 -3.65 -9.55 -2.30 -1.50 1.10 -1.10 5.55 1.75 18.55 0.50 2.50 1.65 8.20 2.50 12.75 0.85 4.55 1.90 9.85 2.25 11.75 0.35 1.95 0.80 4.40 0.95 5.50 0.10 1.10 0.60 3.35 1 5 0.45 1.60 0.80 3.60 0.80 4.40 0 0.80 0.35 2.60 0.75 4 0.70 2.45 1.30 5.55 3 14.85 1.65 9.10 3.30 18 3.95 21.25 0.40 1.95 1.10 5.40 1.55 7.75 0.45 2.35 1.10 5.40 1.40 6.75 0.30 1.40 0.50 2.65 0.45 2.85 -0.05 0.20 0.25 1.90 0.70 3.75 0.45 1.90 0.95 4.40 1.20 5.65 0.20 1.25 0.75 4.15 1.20 6.50 1.20 6.45 1.75 9.55 2.05 11.70 0.15 1.05 0.35 2.10 0.50 2.30 0.25 0.35 1.80 7.15 2.60 11.15 0.25 1.35 1.15 1.90 1.15 0.70 0 -1.20 7 -14.45 10.30 -19.50 7.90 -12.10 20.55 -24.50 33.65 -33.10 4.70 -3.10 14.80 -8.25 19.30 -9.90 7.95 -2.90 12.65 -4.35 17 -5.30 2.75 -0.65 5.80 -1.35 6.75 -1.55 0.95 -0.25 3.20 -0.60 5 -0.75 1.80 -0.15 5.60 -0.50 8.50 -0.75 2.90 -0.30 15.05 -0.45 27 -0.45 20.85 0.05 32.30 0.60 39.75 1.90 1.65 0.30 3.70 0.65 4.50 0.80 2.70 0.40 4.50 0.80 5.75 1.20 0.70 0.25 2.25 0.70 3.50 1.05 6.95 1.80 11.15 3.40 19.75 7.50 19.70 9.40 37.05 25.30 48.75 44.75 2.45 4.05 7.50 13.85 7.50 14.55 0 0.15 0.30 1 0.70 1.85 0.85 1.95 3.10 8.60 3.50 10.50 0.50 2.10 1.20 1.60 1.55 -1 0.20 -1.35 0.55 -3.05 0.75 -3.90 0.25 -0.80 0.70 -3.20 1.05 -5.25 0.30 -2.05 0.75 -4.40 0.95 -5.25 0.20 -0.80 0.65 -2.85 0.95 -4.50 0.35 -1.65 0.80 -4 1.05 -5.25 0.25 -1.25 0.95 -4.85 1.50 -8 0.55 -3.20 1.35 -7.60 1.80 -9.75 1.10 -5.50 1.55 -7.95 2.20 -11.75 0.25 -1.80 0.60 -3.55 0.75 -3.95 0.35 -0.85 2 -9.20 2.75 -13.80 0.65 -3.85 1.95 -10.35 3.55 -18 0.55 -2.75 1.35 -6.90 1.75 -9.25 0.35 -2.35 0.90 -5.25 1.15 -6.50 0.25 -1.25 1.05 -5.30 1.75 -9 0.65 -3.70 1.60 -8.45 2.05 -10.50 0.45 -2.05 1 -5.10 1.25 -6.75 0.25 -1.65 0.80 -4.70 1.25 -6.75 0.40 -2.05 1.20 -6.20 1.75 -9.25 1 -5.40 1.25 -6.60 2.75 -14.35 0.40 -2.10 0.75 -4.40 0.75 -5.05 0 -1.65 -1.50 -2.85 -3.60 -2.85 -1.65 0 -6.05 1.85 -7.90 3.25 -0.40 0.35 -2.30 1.45 -4.25 2.50 -1.90 1.05 -3.75 2.05 -4.05 2.30 -0.30 0.25 -1.75 1.10 -3.25 1.85 -1.50 0.80 -5.40 2.95 -8.70 4.85 -3.30 1.90 -6.60 3.80 -7.35 4.25 -4.30 2.40 -15.75 8.90 -19.40 11.05 -6.85 3.95 -12.25 6.45 -15.30 7 -9.10 1.70 -18.30 -3.40 -22.80 -12.55 -5.15 -10.50 -12.55 -25.25 -30.50 -61.05 -10.90 -21.60 -20 -39.70 -20.30 -40.25 -0.30 -0.50 -2.85 -5.55 -5.60 -11.20 -4.85 -9.85 -7 -13 -8.80 -13 -0.40 0 -0.65 -0.20 -0.50 -0.45 0.15 -0.20 0.90 -0.30 1.65 -0.15 3.20 0.55 1.35 -2.90 46.95 88.15 20.35 40.65 21.30 42.45 23.80 44.70 3.90 3.50 7.30 4.90 12.25 5.15 4.55 0.20 8.25 -0.80 12.85 -3.55 1.40 -0.80 3.30 -1.90 4.20 -2.40 3.95 -2.30 5.50 -3.15 7.60 -4.35 1.25 -0.70 6.70 -3.80 12.15 -6.95 5.50 -3.10 10.15 -5.65 10.40 -5.65 0.25 0 0.45 -0.20 0.45 -0.50 0 -0.25 0.20 -0.50 0.45 -0.50 0.25 0 2.55 -1.20 5.15 -2.70 4.65 -2.65 7.15 -4.05 12.40 -6.95 1.50 -0.85 3.75 -2.15 4.95 -2.95 3.05 -1.90 5 -1.85 7.25 0.30 1.05 0.95 1.80 2.15 1.80 2.80 0 0.60 -0.55 3.85 -1.20 7.20 -0.65 3.30 -1.80 9.45 -2.50 13.55 -0.75 4.15 -1.55 8.30 -1.80 9.25 -0.25 0.95 -1.15 5.60 -1.95 10.25 -0.85 4.70 -1.75 9.65 -2.05 11 -0.25 1.40 -1.05 5.45 -1.80 9 -0.70 3.60 -1.50 7.75 -1.75 9.25 -0.25 1.50 -0.65 3.75 -0.90 5 -0.25 1.25 -0.70 3.40 -0.95 4.75 -0.25 1.40 -0.85 4.30 -1.30 6.50 -0.45 2.20 -1.05 5.35 -1.35 7 -0.70 4.05 -1.25 6.95 -1.90 10.25 -0.30 1.50 -1.20 6.35 -2.05 10.75 -0.85 4.40 -1.75 9.25 -2.05 10.75 -0.30 1.50 -0.75 3.65 -0.95 4.75 -0.25 1.10 -0.95 4.70 -1.55 8 -0.55 3.30 -1.35 7.60 -1.75 9.50 -0.40 1.95 -1.05 5.40 -1.45 7.75 -0.45 2.35 -0.90 4.60 -1 5.05 -0.55 1.65 -2.75 15.05 -2.75 16.45 0 1.50 -0.85 2.05 -1.25 0.90z"/>
  <path d="M437 214.10 c4.25 -2.85 5.90 -5.20 11.80 -17.10 3.25 -6.45 5.95 -11.45 6.05 -11.15 0.25 0.65 -10.10 21.15 -11.90 23.60 -1.35 1.90 -5.80 5.55 -6.65 5.50 -0.30 0 0 -0.40 0.70 -0.85z"/>
  <path d="M455.05 184.70 c0.15 -0.45 9.90 -20 10.30 -20.65 0.10 -0.10 0.30 -0.10 0.45 0.05 0.35 0.35 -9.10 19.40 -10.15 20.40 -0.40 0.40 -0.70 0.50 -0.60 0.20z"/>
  <path d="M466 163 c0 -0.40 0.45 -1.30 1 -2 0.55 -0.70 1 -1.45 1 -1.70 0 -0.50 3.05 -6.85 3.50 -7.30 0.60 -0.60 1.50 -2.55 1.50 -3.25 0 -0.40 0.25 -0.75 0.50 -0.75 0.30 0 0.50 -0.45 0.50 -1 0 -0.55 0.25 -1 0.50 -1 0.30 0 0.50 -0.45 0.50 -0.95 0 -0.55 0.15 -1.05 0.40 -1.15 0.50 -0.20 10.60 -20.45 10.60 -21.25 0 -0.30 0.15 -0.65 0.40 -0.75 0.45 -0.20 5.60 -10.50 5.60 -11.25 0 -0.30 0.15 -0.65 0.40 -0.75 0.20 -0.10 3.60 -6.65 7.55 -14.55 5.10 -10.20 7.60 -14.70 8.60 -15.35 2.10 -1.55 2.30 -1.20 0.35 0.70 -1.30 1.25 -6.85 11.90 -21.85 41.90 -11.05 22.05 -20.35 40.35 -20.60 40.65 -0.30 0.25 -0.45 0.20 -0.45 -0.25z"/>
 </g>
</svg>